<?xml version="1.0" encoding="utf-8"?>
<!-- Generator: Adobe Illustrator 16.0.0, SVG Export Plug-In . SVG Version: 6.00 Build 0)  -->
<!DOCTYPE svg PUBLIC "-//W3C//DTD SVG 1.1//EN" "http://www.w3.org/Graphics/SVG/1.1/DTD/svg11.dtd">
<svg version="1.1" id="Calque_1" xmlns="http://www.w3.org/2000/svg" xmlns:xlink="http://www.w3.org/1999/xlink" x="0px" y="0px"
	 width="432px" height="432px" viewBox="0 0 432 432" enable-background="new 0 0 432 432" xml:space="preserve">
<g>
	<path d="M265.242,132.288c-0.979,2.055-1.942,4.117-2.939,6.163c-1.979,4.06-3.867,8.163-6.045,12.123
		c-1.544,2.808-3.322,5.461-5.291,7.986c-1.438,1.846-3.146,3.396-5.137,4.636c-2.188,1.362-4.403,1.503-6.703,0.273
		c-1.252-0.67-2.34-1.524-3.273-2.588c-3.941-4.494-6.258-9.695-6.832-15.661c-0.053-0.552-0.182-1.098-0.293-1.747
		c-0.412,0.464-0.492,0.98-0.658,1.447c-1.879,5.313-3.711,10.643-5.779,15.884c-1.246,3.157-2.537,6.307-4.465,9.139
		c-0.477,0.7-1.016,1.346-1.659,1.884c-1.214,1.013-2.481,0.949-3.668-0.097c-1.021-0.9-1.587-2.097-2.169-3.276
		c-1.605-3.256-2.631-6.708-3.047-10.298c-0.293-2.53-0.293-5.09-0.193-7.652c0.148-3.756,0.465-7.496,0.802-11.235
		c0.115-1.273,0.298-2.54,0.435-3.812c0.043-0.386,0.154-0.78-0.021-1.235c-1.324,0.474-2.417,1.271-3.494,2.084
		c-2.53,1.907-4.739,4.174-7.056,6.32c-1.116,1.034-2.253,2.047-3.529,2.877c-3.144,2.047-6.119,1.625-8.494-1.517
		c-1.772-2.344-2.658-5.08-3.284-7.903c-0.283-1.28-0.438-2.587-0.67-3.999c-0.394,0.231-0.474,0.573-0.611,0.866
		c-2.154,4.597-4.34,9.179-6.713,13.667c-1.895,3.583-4.146,6.926-6.955,9.871c-0.527,0.553-1.107,1.037-1.721,1.489
		c-2.074,1.532-4.326,1.781-6.695,0.854c-2.109-0.825-3.957-2.039-5.497-3.744c-0.856-0.948-1.77-1.835-2.49-2.904
		c-1.622-2.405-2.868-4.965-3.481-7.822c-0.251-1.162-0.621-2.299-0.95-3.492c-0.319,0.293-0.38,0.612-0.491,0.908
		c-1.971,5.279-3.937,10.559-5.917,15.834c-0.788,2.099-1.695,4.142-2.952,6.013c-0.537,0.8-1.107,1.569-1.855,2.187
		c-1.652,1.361-3.608,1.353-5.25-0.032c-0.93-0.784-1.617-1.76-2.185-2.83c-1.66-3.127-2.669-6.495-3.69-9.859
		c-1.693-5.571-2.588-11.291-3.084-17.071c-0.336-3.9-0.393-7.816-0.239-11.733c0.067-1.717-0.033-3.438-0.002-5.157
		c0.075-4.194,0.183-8.389,0.272-12.584c0.006-0.226,0.111-0.473-0.164-0.737c-1.161,0.561-2.201,1.364-3.254,2.131
		c-2.883,2.099-5.588,4.407-7.988,7.055c-0.482,0.531-0.9,1.121-1.352,1.681c-0.306,0.378-0.67,0.577-1.148,0.317
		c-0.441-0.239-0.576-0.688-0.311-1.239c0.738-1.536,1.873-2.781,3.039-3.989c2.906-3.01,6.22-5.509,9.761-7.718
		c1.597-0.996,1.601-0.99,1.667-2.916c0.134-3.838,0.488-7.652,1.12-11.442c0.167-1.006,0.507-1.933,0.978-2.813
		c0.584-1.098,1.459-1.815,2.781-1.725c1.316,0.091,2.065,0.928,2.545,2.07c0.639,1.521,0.596,3.124,0.567,4.725
		c-0.037,2.075-0.083,4.151-0.118,6.227c-0.004,0.235-0.046,0.482,0.094,0.701c0.301,0.126,0.537-0.064,0.787-0.17
		c6.73-2.848,13.741-4.718,20.92-6.01c7.48-1.346,15.006-2.359,22.593-2.85c5.39-0.349,10.788-0.373,16.187-0.155
		c5.035,0.202,10.061,0.527,15.073,1.042c3.657,0.377,7.3,0.859,10.941,1.377c6.058,0.859,12.078,1.913,18.063,3.162
		c5.592,1.166,11.164,2.424,16.737,3.673c4.954,1.11,9.931,2.088,14.967,2.736c1.663,0.214,3.344,0.293,5.015,0.447
		c0.408,0.038,0.65-0.06,0.82-0.482c0.742-1.854,1.662-3.627,2.531-5.424c2.343-4.839,5.598-8.942,9.865-12.183
		c2.922-2.219,6.141-3.922,9.912-4.181c2.768-0.189,5.438,0.193,7.811,1.757c3.678,2.421,4.94,6.903,3.135,11
		c-1.081,2.449-2.857,4.318-4.979,5.883c-2.805,2.065-5.952,3.394-9.298,4.305c-3.53,0.962-7.135,1.383-10.771,1.604
		c-1.084,0.066-1.064,0.068-1.42,1.068c-1.463,4.111-2.447,8.342-3.313,12.614c-1.051,5.188-1.482,10.432-1.693,15.705
		c-0.046,1.158-0.129,2.314-0.183,3.472c-0.015,0.307-0.105,0.628,0.112,0.972c0.33-0.148,0.391-0.481,0.51-0.75
		c1.881-4.249,4.42-8.051,7.729-11.324c1.398-1.383,2.928-2.604,4.625-3.602c1.216-0.714,2.506-1.211,3.914-1.433
		c1.916-0.301,3.572,0.197,4.969,1.509c1.596,1.5,2.506,3.36,2.879,5.526c0.629,3.658,0.545,7.32,0.188,10.99
		c-0.649,6.68-1.31,13.356-2.257,20.006c-0.619,4.345-1.101,8.727-0.791,13.141c0.086,1.237,0.225,2.472,0.785,3.604
		c0.482,0.976,0.871,1.082,1.797,0.502c0.929-0.582,1.642-1.396,2.308-2.249c2.517-3.226,4.571-6.748,6.547-10.315
		c2.983-5.386,5.681-10.92,8.452-16.415c2.23-4.424,4.365-8.897,6.721-13.258c0.493-0.913,1.054-1.791,1.606-2.67
		c0.167-0.266,0.391-0.506,0.624-0.717c0.223-0.2,0.504-0.232,0.781-0.083c0.322,0.174,0.447,0.463,0.381,0.805
		c-0.044,0.229-0.139,0.459-0.258,0.66c-1.992,3.334-3.569,6.882-5.325,10.336c-4.003,7.873-7.937,15.78-11.97,23.639
		c-1.807,3.521-3.813,6.938-6.287,10.05c-0.524,0.658-1.097,1.272-1.741,1.814c-2.555,2.147-5.147,1.604-6.714-1.336
		c-1.369-2.568-2.197-5.313-2.76-8.142c-0.585-2.94-0.867-5.916-1.066-8.913c-0.354-5.305,0.195-10.532,0.907-15.766
		c0.274-2.017,0.402-4.054,0.589-6.082c0.148-1.631,0.328-3.26,0.416-4.894c0.121-2.236,0.061-4.475-0.184-6.702
		c-0.1-0.913-0.584-1.295-1.584-1.239c-1.006,0.057-1.956,0.353-2.867,0.8c-2.086,1.025-3.805,2.523-5.291,4.262
		c-4.168,4.882-6.787,10.521-7.931,16.832c-0.372,2.05-0.185,4.146-0.313,6.218c-0.021,0.358-0.027,0.722-0.094,1.073
		c-0.129,0.69-0.525,1.168-1.238,1.298c-0.719,0.131-1.25-0.211-1.613-0.795c-0.402-0.647-0.66-1.374-0.86-2.103
		c-1.083-3.927-2.247-7.842-2.805-11.887c-0.321-2.332-0.554-4.684-0.544-7.047c0.002-0.424-0.035-0.848-0.055-1.271
		C265.4,132.299,265.322,132.293,265.242,132.288z M215.145,169.257c0.358-0.469,0.739-0.922,1.07-1.408
		c1.535-2.257,2.745-4.692,3.824-7.188c3.189-7.384,5.646-15.037,8.238-22.64c0.129-0.378,0.213-0.764,0.209-1.174
		c-0.039-3.487,0.297-6.942,0.951-10.366c0.307-1.608,0.791-3.168,1.263-4.733c0.971-3.221,2.31-6.213,4.882-8.503
		c2.941-2.619,6.326-3.446,10.006-2.015c4.23,1.647,7.335,4.616,9.184,8.813c0.561,1.272,0.744,2.605,0.463,3.983
		c-0.166,0.808-0.534,1.224-1.085,1.235c-0.554,0.011-0.984-0.402-1.089-1.207c-0.092-0.7-0.367-1.313-0.719-1.89
		c-1.719-2.819-4.221-4.641-7.34-5.644c-1.164-0.374-2.229-0.118-3.132,0.672c-0.536,0.47-1.042,0.976-1.446,1.588
		c-1.636,2.479-2.484,5.255-3.098,8.116c-0.57,2.661-0.913,5.355-0.957,8.082c-0.037,2.356-0.01,4.714,0.213,7.06
		c0.199,2.106,0.508,4.202,0.779,6.302c0.293,2.259,0.577,4.521,1.186,6.725c0.426,1.541,0.855,3.079,1.807,4.412
		c1.281,1.796,2.404,2.057,4.287,0.946c0.137-0.081,0.266-0.176,0.4-0.264c1.386-0.904,2.564-2.044,3.624-3.3
		c2.975-3.525,5.494-7.37,7.704-11.406c3.438-6.279,6.347-12.82,9.353-19.313c0.116-0.252,0.215-0.523,0.255-0.795
		c0.37-2.448,0.777-4.89,1.166-7.334c0.561-3.521,1.391-6.963,2.429-10.365c0.32-1.052,0.612-2.111,0.912-3.146
		c-0.424-0.24-0.79-0.245-1.143-0.269c-5.2-0.354-10.311-1.284-15.387-2.414c-7.368-1.64-14.724-3.339-22.097-4.956
		c-5.506-1.207-11.064-2.142-16.641-2.95c-4.47-0.647-8.957-1.175-13.458-1.573c-4.662-0.412-9.33-0.716-14.007-0.837
		c-8.408-0.218-16.783,0.231-25.123,1.364c-6.539,0.889-13.041,1.961-19.432,3.627c-4.453,1.16-8.777,2.698-13.01,4.51
		c-0.758,0.325-0.982,0.723-0.982,1.521c0,2.556-0.105,5.11-0.152,7.666c-0.099,5.353-0.211,10.705-0.268,16.059
		c-0.051,4.759,0.164,9.509,0.168,14.265c0.002,3.193,0.283,6.385,0.457,9.576c0.172,3.163,0.565,6.286,1.184,9.386
		c0.259,1.299,0.633,2.567,1.307,3.717c0.7,1.197,1.375,1.278,2.383,0.323c0.261-0.246,0.487-0.528,0.711-0.809
		c0.68-0.849,1.17-1.813,1.648-2.779c1.703-3.444,3.055-7.037,4.449-10.611c1.524-3.908,3.009-7.833,4.514-11.749
		c0.232-0.603,0.301-1.181,0.208-1.855c-0.767-5.539-0.825-11.064,0.536-16.541c0.824-3.314,1.951-6.5,3.898-9.343
		c1.636-2.39,3.602-4.353,6.477-5.242c2.615-0.811,5.008-0.464,7.09,1.301c2.746,2.329,4.422,5.352,5.172,8.847
		c0.955,4.453-0.248,8.317-3.51,11.495c-1.63,1.589-3.641,2.589-5.762,3.356c-1.809,0.654-3.672,1.085-5.59,1.298
		c-0.919,0.103-0.919,0.159-0.822,1.063c0.051,0.477,0.108,0.953,0.154,1.431c0.277,2.87,0.754,5.716,1.531,8.481
		c0.918,3.263,2,6.482,3.113,9.685c0.471,1.352,1.154,2.643,2.064,3.772c1.065,1.324,2.317,1.571,3.836,0.816
		c1.203-0.599,2.154-1.508,3.033-2.5c2.587-2.924,4.633-6.221,6.487-9.629c2.579-4.741,4.853-9.638,7.101-14.544
		c0.447-0.975,1.025-1.913,1.195-2.995c0.219-1.382,0.371-2.773,0.588-4.154c0.811-5.153,2.348-10.001,5.575-14.234
		c2.042-2.678,4.481-4.589,7.806-5.373c1.865-0.439,3.646-0.366,5.402,0.332c3.125,1.243,5.313,3.499,6.73,6.497
		c0.976,2.06,1.206,4.216,0.414,6.41c-0.254,0.705-0.619,1.005-1.09,0.892c-0.566-0.136-0.696-0.573-0.732-1.094
		c-0.159-2.264-1.311-3.976-3.016-5.378c-1.77-1.455-3.701-1.863-5.797-0.816c-1.604,0.802-2.892,2.016-3.863,3.507
		c-2.277,3.494-3.318,7.454-3.877,11.502c-0.604,4.389-1.051,8.808-1.233,13.243c-0.064,1.575,0.083,3.124,0.67,4.592
		c0.596,1.488,1.626,1.871,3.077,1.209c0.916-0.419,1.72-1.014,2.459-1.696c3.26-3.012,6.514-6.029,9.784-9.03
		c1.265-1.161,2.446-2.418,3.868-3.399c2.035-1.406,4.279-1.125,5.893,0.742c0.873,1.012,1.257,2.209,1.318,3.524
		c0.116,2.521-0.006,5.032-0.227,7.545c-0.357,4.059-0.721,8.119-0.68,12.199c0.04,4.036,0.061,8.07-0.144,12.104
		C214.686,166.772,214.732,167.968,215.145,169.257z M279.816,102.154c0.207,0.028,0.325,0.065,0.44,0.057
		c3.066-0.224,6.13-0.498,9.127-1.215c3.603-0.863,7.007-2.191,9.947-4.52c1.716-1.357,3.149-2.941,3.894-5.053
		c1.341-3.812-0.834-7.592-4.801-8.35c-1.952-0.372-3.812-0.036-5.605,0.752c-2.795,1.23-4.825,3.36-6.612,5.743
		c-2.41,3.214-4.042,6.866-5.734,10.476C280.177,100.675,279.814,101.327,279.816,102.154z M166.986,116.186
		c0.051-1.957-1.574-5.198-4.12-7.07c-1.182-0.868-2.003-0.838-3.11,0.137c-0.695,0.612-1.215,1.384-1.734,2.132
		c-1.606,2.312-2.757,4.855-3.564,7.548c-0.736,2.459-1.107,4.988-1.301,7.543c-0.075,1.004,0.017,1.104,0.935,1.01
		c2.675-0.275,5.315-0.752,7.716-2.03C165.063,123.721,166.879,121.032,166.986,116.186z"/>
	<path fill="#CB7B26" d="M213.94,252.09c0.354-0.261,0.458-0.701,0.641-1.08c1.722-3.576,4.005-6.714,7.1-9.237
		c1.992-1.625,4.235-2.728,6.752-3.201c5.274-0.991,10.086,1.719,12.136,6.753c1.121,2.751,1.229,5.597,0.813,8.484
		c-0.542,3.761-1.964,7.237-3.579,10.637c-2.889,6.078-6.543,11.717-10.116,17.397c-3.022,4.803-6.079,9.583-8.888,14.517
		c-0.119,0.208-0.23,0.422-0.361,0.622c-1.066,1.63-2.327,1.903-3.955,0.807c-0.999-0.673-1.852-1.532-2.647-2.426
		c-4.386-4.921-8.706-9.902-12.509-15.296c-2.65-3.761-4.883-7.755-6.554-12.073c-1.12-2.893-1.966-5.819-2.269-8.9
		c-0.298-3.023,0.012-6.006,1.057-8.844c0.946-2.571,2.357-4.885,4.705-6.487c3.072-2.095,6.262-2.214,9.512-0.519
		c3.186,1.66,5.423,4.289,7.201,7.347c0.28,0.48,0.541,0.973,0.814,1.457C213.807,252.07,213.865,252.069,213.94,252.09z
		 M216.914,295.118c0.352-0.518,0.583-0.835,0.789-1.167c1.281-2.073,2.534-4.164,3.836-6.224
		c3.758-5.944,7.61-11.829,10.965-18.018c2.385-4.399,4.506-8.911,5.743-13.79c0.636-2.507,0.917-5.029,0.386-7.594
		c-1.359-6.556-7.34-8.519-12.148-5.959c-2.752,1.465-4.852,3.622-6.586,6.159c-1.514,2.214-2.756,4.585-3.93,6.994
		c-0.402,0.824-0.826,1.649-1.349,2.398c-0.608,0.873-1.573,0.795-2.153-0.104c-0.216-0.334-0.396-0.686-0.477-1.091
		c-0.431-2.184-1.339-4.186-2.5-6.059c-1.126-1.815-2.549-3.381-4.391-4.518c-1.793-1.106-3.734-0.973-5.174,0.443
		c-1.352,1.329-2.146,2.961-2.339,4.862c-0.171,1.677,0.014,3.336,0.173,5.009c0.449,4.706,2.221,8.965,4.338,13.101
		c1.751,3.417,4.055,6.5,6.09,9.745c2.037,3.248,4.01,6.532,5.791,9.931C214.961,291.111,215.951,292.979,216.914,295.118z"/>
	<g>
		<path d="M233.104,207.106c-0.484,1.844-0.927,3.701-1.462,5.529c-1.126,3.841-2.455,7.604-4.512,11.067
			c-0.408,0.689-0.877,1.336-1.436,1.913c-1.818,1.874-4.182,2.067-6.266,0.497c-1.671-1.259-2.791-2.956-3.683-4.805
			c-1.708-3.543-2.847-7.26-3.665-11.118c-1.154-5.438-1.435-10.911-1.346-16.436c0.045-2.757,0.056-5.514,0.258-8.265
			c0.071-0.962,0.226-1.903,0.529-2.82c0.207-0.622,0.559-1.152,1.009-1.613c1.033-1.054,2.558-1.121,3.679-0.154
			c1.054,0.909,1.484,2.141,1.75,3.459c0.523,2.606,0.506,5.252,0.496,7.885c-0.014,3.479,0.169,6.945,0.389,10.413
			c0.334,5.265,0.826,10.515,1.486,15.748c0.174,1.387,0.434,2.775,0.99,4.063c1.082,2.507,1.764,2.351,3.422,0.544
			c0.57-0.619,0.97-1.365,1.34-2.123c2.042-4.189,3.395-8.616,4.564-13.109c0.716-2.746,1.247-5.535,1.946-8.283
			c0.562-2.208,0.51-4.436,0.492-6.671c-0.017-2.118-0.077-4.235,0.169-6.347c0.102-0.877,0.27-1.742,0.563-2.572
			c0.603-1.705,2.103-2.615,3.625-2.193c1.181,0.326,1.854,1.208,2.271,2.297s0.623,2.234,0.758,3.386
			c0.295,2.505,0.221,5.027,0.33,7.542c0.168,3.912,0.068,7.831,0.354,11.74c0.344,4.696,0.73,9.391,0.643,14.108
			c-0.023,1.319,0.175,2.636,0.723,3.864c0.367,0.824,0.643,0.886,1.317,0.276c0.963-0.87,1.633-1.964,2.244-3.092
			c1.356-2.504,2.362-5.156,3.314-7.831c2.147-6.041,3.737-12.222,4.653-18.57c0.264-1.822,0.445-3.651,0.543-5.488
			c0.053-1.014,0.047-1.058-0.975-1.236c-2.179-0.381-3.965-1.421-5.422-3.063c-1.516-1.706-2.354-3.688-2.451-5.974
			c-0.063-1.489,0.063-2.953,0.603-4.361c0.349-0.912,0.854-1.704,1.628-2.328c0.975-0.785,2.029-0.875,3.148-0.423
			c0.836,0.338,1.472,0.942,2.012,1.655c1.488,1.962,2.164,4.262,2.699,6.606c0.382,1.676,0.599,3.383,0.699,5.102
			c0.05,0.87,0.119,0.943,0.996,0.919c0.959-0.028,1.916-0.086,2.875-0.132c4.561-0.222,7.023,2.916,7.928,6.546
			c0.931,3.736,0.818,7.524,0.735,11.315c-0.054,2.436-0.098,4.873-0.245,7.304c-0.144,2.352-0.394,4.696-0.635,7.041
			c-0.169,1.632-0.283,3.263-0.174,4.901c0.03,0.456-0.035,0.963,0.386,1.366c0.713-0.317,1.066-0.957,1.45-1.549
			c1.264-1.95,2.281-4.036,3.246-6.143c3.16-6.903,6.291-13.82,9.434-20.732c0.299-0.656,0.615-1.302,1.055-1.878
			c0.31-0.407,0.685-0.748,1.211-0.429c0.538,0.325,0.355,0.785,0.146,1.26c-2.502,5.664-4.984,11.338-7.486,17.003
			c-1.693,3.837-3.229,7.746-5.174,11.469c-0.427,0.817-0.912,1.596-1.472,2.328c-0.442,0.581-0.974,1.057-1.626,1.391
			c-1.287,0.657-2.465,0.519-3.553-0.431c-0.957-0.835-1.574-1.927-2.08-3.051c-1.324-2.934-2.117-6.021-2.387-9.233
			c-0.283-3.353-0.059-6.703,0.086-10.054c0.145-3.314,0.205-6.633-0.135-9.937c-0.146-1.426-0.534-2.826-0.984-4.194
			c-0.316-0.963-1.174-1.247-2.023-1.509c-1.438-0.443-1.451-0.419-1.539,1.022c-0.328,5.449-1.351,10.78-2.797,16.032
			c-1.381,5.014-3.026,9.938-5.232,14.66c-0.695,1.488-1.518,2.904-2.486,4.232c-0.477,0.651-1.01,1.245-1.676,1.702
			c-1.141,0.784-2.335,0.781-3.461-0.005c-0.325-0.228-0.654-0.47-0.919-0.763c-2.72-3.009-4.726-6.357-5.636-10.401
			c-0.628-2.792-0.697-5.617-1.088-8.418c-0.02-0.145-0.027-0.29-0.041-0.436C233.191,207.118,233.147,207.112,233.104,207.106z
			 M248.415,178.723c0.075,1.37,0.208,2.6,0.681,3.761c0.908,2.234,2.508,3.646,4.913,4.097c0.417,0.078,0.614-0.029,0.575-0.474
			c-0.265-2.993-0.744-5.94-1.963-8.714c-0.369-0.839-0.817-1.651-1.548-2.252c-0.826-0.68-1.399-0.576-1.935,0.352
			C248.539,176.534,248.491,177.695,248.415,178.723z"/>
		<path d="M169.882,186.271c-0.343,0.746-0.683,1.493-1.028,2.237c-1.752,3.772-3.506,7.545-6.092,10.849
			c-1.406,1.798-2.878,3.536-4.85,4.764c-1.95,1.215-3.693,0.896-5.189-0.878c-1.602-1.9-2.565-4.138-3.422-6.419
			c-1.891-5.04-2.744-10.253-2.359-15.639c0.084-1.192,0.292-2.378,0.471-3.563c0.09-0.596,0.31-1.161,0.601-1.688
			c0.961-1.737,2.94-1.879,4.128-0.295c0.562,0.749,0.871,1.609,1.057,2.522c0.455,2.235,0.703,4.498,0.842,6.771
			c0.205,3.388,0.354,6.779,0.532,10.169c0.101,1.922,0.386,3.814,0.909,5.669c0.064,0.229,0.123,0.465,0.225,0.679
			c0.326,0.694,0.512,0.772,1.209,0.42c0.937-0.473,1.729-1.149,2.483-1.869c2.224-2.122,3.899-4.654,5.352-7.333
			c2.003-3.694,3.751-7.508,5.087-11.499c0.24-0.719,0.439-1.453,0.609-2.191c0.256-1.118,0.701-2.086,1.953-2.312
			c1.275-0.229,2.285,0.364,3.027,1.326c0.708,0.919,1.241,1.96,1.496,3.112c0.586,2.657,0.927,5.349,1.113,8.062
			c0.209,3.068,0.426,6.136,0.631,9.204c0.309,4.637,0.361,9.248-0.813,13.81c-1.37,5.318-4.209,9.526-8.966,12.364
			c-1.753,1.046-3.639,1.598-5.694,1.619c-3.373,0.035-5.821-1.444-7.385-4.408c-0.861-1.634-1.352-3.417-2-5.136
			c-0.191-0.511-0.129-0.984,0.414-1.212c0.583-0.245,0.878,0.16,1.101,0.625c0.622,1.297,1.229,2.603,1.873,3.889
			c0.469,0.935,1.055,1.791,1.892,2.447c1.84,1.44,4.72,1.549,6.896,0.256c3.772-2.241,5.512-5.627,5.623-9.947
			c0.078-3.045-0.409-6.056-0.516-9.089c-0.098-2.753-0.222-5.506-0.378-8.256c-0.113-1.993-0.308-3.981-0.448-5.974
			c-0.07-0.995-0.1-1.994-0.146-2.991C170.039,186.335,169.961,186.303,169.882,186.271z"/>
		<path d="M207.643,201.183c0.068,4.092-0.602,8.389-1.721,12.61c-0.969,3.651-2.352,7.132-4.906,10.02
			c-0.582,0.658-1.199,1.278-1.917,1.8c-2.75,1.998-5.759,1.993-8.589,0.07c-2.492-1.695-4.288-3.993-5.713-6.651
			c-1.672-3.118-2.541-6.477-2.968-9.915c-0.558-4.491-0.435-8.978,0.694-13.436c0.699-2.765,1.5-5.473,2.754-8.015
			c1.604-3.246,3.744-6.057,7.194-7.563c1.893-0.827,3.851-1,5.835-0.311c0.678,0.235,1.344,0.504,2.011,0.771
			c2.648,1.063,4.093,3.229,5.124,5.722c0.92,2.227,1.398,4.574,1.717,6.959C207.496,195.781,207.749,198.322,207.643,201.183z
			 M189.311,204.141c-0.16,0.729-0.037,1.484,0.021,2.241c0.181,2.388,0.377,4.769,0.769,7.138c0.34,2.054,0.701,4.092,1.469,6.029
			c0.519,1.31,1.223,2.51,2.371,3.397c0.918,0.708,1.883,0.802,2.92,0.323c1-0.461,1.809-1.157,2.498-2.01
			c1.168-1.449,1.957-3.1,2.594-4.833c0.982-2.676,1.552-5.448,1.938-8.266c0.691-5.051,0.969-10.106,0.117-15.164
			c-0.385-2.284-0.789-4.571-1.881-6.661c-0.313-0.6-0.544-1.244-1.398-1.264c-0.285-0.006-0.437-0.322-0.635-0.516
			c-0.836-0.815-1.834-1.091-2.975-0.877c-1.269,0.238-2.293,0.868-3.123,1.859c-2.879,3.438-3.697,7.633-4.317,11.876
			C189.354,199.626,189.229,201.868,189.311,204.141z"/>
	</g>
	<g>
		<path d="M201.156,327.723c-0.164,5.858-1.202,11.514-3.937,16.768c-1.325,2.547-2.963,4.841-5.455,6.392
			c-1.351,0.84-2.823,1.277-4.425,1.309c-1.996,0.038-3.635-0.808-5.13-2.012c-3.157-2.544-5.342-5.81-6.844-9.527
			c-2.72-6.731-3.409-13.686-1.936-20.807c0.759-3.665,2.067-7.125,4.261-10.207c1.708-2.399,3.879-4.227,6.576-5.415
			c1.211-0.533,2.521-0.857,3.799-0.995c2.889-0.31,6.821,1.251,8.361,4.48c2.01,4.218,3.438,8.596,4.133,13.215
			C200.899,323.177,201.207,325.433,201.156,327.723z M180.065,326.386c-0.021,0.41-0.042,0.57-0.036,0.729
			c0.195,5.179,1.049,10.245,2.764,15.138c0.631,1.8,1.435,3.557,2.759,5.001c1.272,1.389,2.841,1.736,4.558,0.989
			c0.703-0.306,1.33-0.731,1.877-1.269c0.918-0.902,1.668-1.933,2.311-3.045c1.248-2.159,2.113-4.471,2.755-6.873
			c2.519-9.446,1.431-18.521-2.812-27.269c-0.365-0.753-0.775-1.497-1.389-2.087c-0.766-0.737-1.608-1.191-2.765-1.132
			c-1.542,0.079-2.771,0.717-3.845,1.723c-2.34,2.192-3.66,5.009-4.684,7.972C180.399,319.617,179.928,323.088,180.065,326.386z"/>
		<path d="M227.892,318.417c-0.097,7.318-0.604,14.281-2.323,21.111c-0.664,2.64-1.438,5.238-2.736,7.65
			c-0.477,0.884-1.027,1.715-1.787,2.387c-1.791,1.585-4.072,1.751-6.09,0.481c-2.438-1.536-4.189-3.693-5.527-6.188
			c-2.2-4.1-3.327-8.517-3.914-13.122c-0.521-4.094-0.731-8.201-0.746-12.311c-0.009-2.821-0.141-5.675,0.536-8.468
			c0.2-0.825,0.489-1.608,0.858-2.358c0.543-1.103,1.352-1.901,2.692-1.845c1.359,0.058,2.045,0.962,2.472,2.115
			c0.76,2.053,0.9,4.207,0.988,6.364c0.209,5.148,0.37,10.304,0.94,15.425c0.478,4.283,0.958,8.575,1.989,12.778
			c0.326,1.331,0.796,2.6,1.456,3.792c0.983,1.776,2.024,1.865,3.286,0.296c0.912-1.137,1.492-2.464,1.982-3.813
			c1.829-5.025,2.734-10.247,3.327-15.546c0.571-5.104,0.509-10.213,0.358-15.329c-0.035-1.157-0.044-2.314-0.061-3.472
			c-0.004-0.28-0.013-0.562,0.01-0.84c0.062-0.771,0.406-1.204,0.92-1.181c0.476,0.021,0.81,0.401,0.865,1.121
			c0.104,1.314,0.175,2.631,0.232,3.948C227.725,313.85,227.811,316.286,227.892,318.417z"/>
		<path d="M236.098,323.622c-0.986-0.119-1.723,0.15-2.48,0.168c-0.559,0.013-1.121,0.051-1.678,0.01
			c-0.764-0.056-1.191-0.469-1.207-1.074c-0.014-0.572,0.311-0.974,1.029-1.122c0.86-0.177,1.734-0.291,2.604-0.421
			c0.315-0.047,0.638-0.086,0.955-0.079c0.596,0.012,0.734-0.304,0.725-0.833c-0.039-2.116-0.088-4.233-0.07-6.35
			c0.016-1.716,0.064-3.437,0.516-5.115c0.192-0.712,0.533-1.341,0.98-1.906c1.328-1.676,3.086-1.672,4.434,0.005
			c0.827,1.028,1.2,2.239,1.361,3.531c0.383,3.059,0.461,6.134,0.523,9.21c0.021,0.992,0.001,1.026,0.979,0.976
			c1.758-0.09,3.511-0.229,5.266-0.339c0.479-0.03,0.959-0.066,1.436-0.04c0.346,0.019,0.59,0.249,0.651,0.604
			c0.062,0.358-0.115,0.606-0.411,0.796c-0.318,0.202-0.678,0.23-1.034,0.272c-1.944,0.231-3.89,0.463-5.835,0.687
			c-0.91,0.104-0.97,0.139-0.956,0.992c0.05,3.037,0.14,6.073,0.164,9.11c0.024,3.196-0.005,6.393-0.017,9.589
			c-0.006,1.759,0.041,3.519,0.264,5.262c0.287,2.256,1.32,2.685,3.135,1.357c1.344-0.982,2.373-2.256,3.261-3.645
			c2.436-3.813,4.538-7.81,6.544-11.858c0.231-0.467,0.397-0.956,0.523-1.465c0.164-0.664,0.516-0.965,0.938-0.842
			c0.573,0.168,0.661,0.624,0.627,1.146c-0.056,0.817-0.393,1.546-0.717,2.274c-1.239,2.776-2.709,5.437-4.094,8.14
			c-1.114,2.175-2.318,4.289-3.877,6.187c-1.113,1.354-2.404,2.449-4.1,3.007c-1.809,0.595-3.371,0.24-4.713-1.139
			c-1.831-1.88-2.903-4.152-3.721-6.618c-1.144-3.448-1.496-7.021-1.867-10.591c-0.174-1.664-0.113-3.353-0.133-5.03
			C236.083,326.885,236.098,325.292,236.098,323.622z"/>
	</g>
</g>
</svg>
