<?xml version="1.0" encoding="UTF-8" standalone="no"?>
<!-- Generator: Adobe Illustrator 20.1.0, SVG Export Plug-In . SVG Version: 6.00 Build 0)  -->

<svg
   version="1.1"
   id="Calque_1"
   x="0px"
   y="0px"
   viewBox="0 0 259.24402 270.32565"
   xml:space="preserve"
   sodipodi:docname="winner_screen.svg"
   inkscape:version="1.2 (dc2aedaf03, 2022-05-15)"
   width="259.24402"
   height="270.32565"
   xmlns:inkscape="http://www.inkscape.org/namespaces/inkscape"
   xmlns:sodipodi="http://sodipodi.sourceforge.net/DTD/sodipodi-0.dtd"
   xmlns="http://www.w3.org/2000/svg"
   xmlns:svg="http://www.w3.org/2000/svg"><defs
   id="defs2119" /><sodipodi:namedview
   id="namedview2117"
   pagecolor="#ffffff"
   bordercolor="#000000"
   borderopacity="0.25"
   inkscape:showpageshadow="2"
   inkscape:pageopacity="0.0"
   inkscape:pagecheckerboard="0"
   inkscape:deskcolor="#d1d1d1"
   showgrid="false"
   inkscape:zoom="1.9189815"
   inkscape:cx="28.400482"
   inkscape:cy="135.48854"
   inkscape:window-width="1920"
   inkscape:window-height="1009"
   inkscape:window-x="1912"
   inkscape:window-y="-8"
   inkscape:window-maximized="1"
   inkscape:current-layer="g2066" />
<style
   type="text/css"
   id="style2058">
	.st0{stroke:#000000;stroke-width:2.2536;stroke-linecap:round;stroke-linejoin:round;stroke-miterlimit:10;}
	.st1{fill:#C9973C;}
	.st2{fill:#CC7B26;}
	.st3{fill:#CB9A3E;}
	.st4{fill:#C9983C;}
	.st5{fill:#31AC67;}
	.st6{fill-rule:evenodd;clip-rule:evenodd;fill:#CC7B26;}
	.st7{fill:#9D9D9C;}
</style>
<g
   id="g2114"
   transform="translate(-86.381584,-80.985)">
	<g
   id="g2066">
		<path
   d="m 112.1,103.4 c -0.9,-0.1 -1.6,0.6 -1.8,1.3 0,0.9 0.5,1.7 1.3,1.8 12.1,0.9 14.5,-19.8 0.1,-24.3 -2.7,-0.9 -5.5,-1.3 -8.1,-1.2 -18.5,1.2 -25.4,29.8 -3.9,35.3 8.3,2.2 12.2,10 11.2,16.2 -0.7,6 -4.1,11.5 -7.3,11.8 -7.9,0.5 -11.9,-8.7 -7.7,-15.9 l 1.3,-1.8 c 0.5,-0.6 0.4,-1.6 -0.3,-2.1 -0.6,-0.5 -1.6,-0.4 -2.1,0.3 l -1.5,2.1 c -5.4,9 -0.2,20.3 9.9,21.4 15.5,1.6 21.3,-21.8 8.2,-29.8 -1.5,-0.9 -2.8,-1.6 -4.2,-2 -17,-5.6 -15,-33.2 0.8,-31.9 14.1,1.1 12.6,19.5 4.1,18.8 z"
   id="path2060" />
		<path
   d="m 242.2,103.9 c 0.6,-6.8 -6.9,-6.9 -7.8,-1 -0.1,7.4 7.3,5.8 7.8,1 z"
   id="path2062" />
		<path
   d="m 343.7,116.7 c -3.8,-0.1 -8,0.6 -13,2.2 -3.5,-2.3 -5.7,-3.5 -7,-5 3.3,-9.3 5.7,-18.5 -0.7,-19.1 -10.6,-0.9 -10.6,17.7 -3.8,21.8 -0.1,0.2 -0.1,0.4 -0.2,0.6 -2.8,7.8 -7.1,9.1 -9.2,7.8 -2,-1.2 -2.7,-3.6 -2.8,-6 6,-1.6 9,-10.3 4.6,-12.5 -7.3,-3.5 -12,3.7 -12.2,11 0,0 0,0.1 0,0.1 -3.2,8.3 -4.5,11.4 -6.8,16.2 -8.5,17.8 -1.6,-30.8 -1.3,-32.8 1,-5.3 -3.4,-8.5 -7.1,-4.6 -2.2,1.9 -6.4,12 -9.6,21.5 -2.5,7.5 -5.7,16.5 -3.8,3.1 2.4,-17 -1.6,-17.7 -4.7,-13.4 -2.3,3.2 -3.5,5.7 -6.8,12.1 -4.2,8.2 -2.4,2.4 -2,-6.2 0,-3.5 -7.7,-4.9 -7.7,-2.1 -0.1,1.1 -0.2,3.5 -0.2,6.2 -6,16 -9.7,16.9 -9.5,14.2 -0.5,-3.7 0.9,-15.2 1.2,-17.9 0.4,-2 -7,-3.4 -7.4,-1.4 -0.1,0.8 -0.3,2.8 -0.6,5.3 0,0 0,0 0,0 -5.8,16.4 -10.8,26.2 -9,3.8 0.5,-6.6 0.6,-19.8 0.6,-27 3.5,0.1 6.6,-0.5 9,-3.6 0.5,-0.7 0.2,-1.7 -0.5,-2.2 -0.7,-0.4 -1.6,-0.2 -2.1,0.5 -1.4,2 -3.9,2.4 -6.4,2.3 -0.1,-2.2 -0.2,-4.2 -0.5,-6.1 -0.3,-2 -9.6,-0.5 -9.2,1.5 0.2,1.1 0.3,2.4 0.4,3.5 -2.9,-0.2 -5.9,0.1 -7.4,2.7 -0.4,0.8 0,1.7 0.8,2 0.8,0.4 1.6,0 2,-0.8 0.5,-0.9 2.6,-0.9 4.8,-0.8 0.4,6.1 0.2,16.5 0.2,23.8 -2.8,7.6 -7,9 -9.1,7.7 -2,-1.2 -2.7,-3.6 -2.8,-6 6,-1.6 9,-10.3 4.6,-12.5 -7.3,-3.5 -12,3.7 -12.2,11 0,0 0,0.1 0,0.1 -3.2,8.3 -4.5,11.4 -6.8,16.2 -8.5,17.8 -1.6,-30.8 -1.3,-32.8 1,-5.3 -3.4,-8.5 -7.1,-4.6 -2.2,1.9 -6.4,12 -9.6,21.5 -2.5,7.5 -5.7,16.5 -3.8,3.1 2.4,-17 -1.6,-17.7 -4.7,-13.4 -2.3,3.2 -3.5,5.7 -6.8,12.1 -4.2,8.2 -2.4,2.4 -2,-6.2 0,-3.5 -7.7,-4.9 -7.7,-2.1 0,1 -0.2,3.2 -0.2,5.7 -1.5,1.3 -2.9,2.6 -6.4,3.5 1.5,-11.2 -1.2,-23.6 -10,-22.1 -8.2,1.3 -11.4,14.6 -6,21.8 -1.3,3.2 -1.8,6.8 -1.4,10.6 0.5,5.3 3.8,8.9 9.1,6.4 3.6,-1.7 6.3,-7 7.7,-13.1 2.3,-0.5 5.1,-1.6 7.2,-3.1 0.3,4.8 1.4,9.4 4.3,9.8 3.8,0.5 7.1,-7.3 8.1,-9.4 6.8,-14 -4.2,14.5 7.7,14.5 1.2,0 2.2,-1.5 2.8,-2.6 3,-5.6 6,-17 8.5,-23.2 6.5,-16.8 -8.2,31 7.1,34.4 3.9,0.9 9.2,-12.5 12.1,-20.7 1.2,3.1 3.6,5.5 7.5,5.9 4.4,0.4 8.1,-0.8 11.1,-5.2 -0.2,6.3 -0.1,19.1 6.7,18.3 4.2,-0.5 7.8,-8 10.4,-14.8 0.1,5.8 1.1,11.2 4.5,12.2 5.2,1.6 9.6,-7.5 12.8,-15.5 0.6,3.3 1.7,6 3.9,6.3 3.8,0.5 7.1,-7.3 8.1,-9.4 6.8,-14 -4.2,14.5 7.7,14.5 1.2,0 2.2,-1.5 2.8,-2.6 3,-5.6 6,-17 8.5,-23.2 6.5,-16.8 -8.2,31 7.1,34.4 3.9,0.9 9.2,-12.5 12.1,-20.7 1.2,3.1 3.6,5.5 7.5,5.9 5.4,0.5 9.9,-1.5 13.1,-9 0.5,-0.9 1,-1.8 1.2,-2.3 0.8,0.6 2.5,1.4 3.8,3.3 -15.3,9.7 -10,35.7 2.1,30.6 12.2,-5 14,-21 5.5,-30.5 3.1,-0.9 6.2,-1.7 10.9,-2 2,-0.8 1.4,-3.5 -0.7,-3.5 z m -36.5,-2 c 0.5,-8.6 6.4,-2.6 -0.1,1.2 0.1,-0.6 0.1,-0.7 0.1,-1.2 z m -103.2,0 c 0.5,-8.6 6.4,-2.6 -0.1,1.2 0.1,-0.6 0.1,-0.7 0.1,-1.2 z m -70.2,15.9 c -3.2,5.4 -6,3.8 -3.5,-6.4 1.6,0.4 3.5,0.5 5.7,0.3 -0.6,2.2 -1.2,4.4 -2.2,6.1 z m 2.8,-9.2 c -2.1,0.3 -4,0.2 -5.5,-0.2 0.1,-2.3 1.4,-5.6 1.8,-6.9 0.6,-0.7 -2.6,-4.4 -4.1,-2.6 -1.4,1.5 -2.3,3.4 -3.2,5.1 -2.8,-5.4 -0.5,-13.7 4.2,-15.3 5.6,-1.9 7.1,6.1 7.4,9.9 0.1,2.4 0,6.1 -0.6,10 z M 320.5,112 c -1.9,-1.6 -2.7,-14.5 1.7,-13.9 2.7,0.3 0.1,7.4 -1.7,13.9 z m 7,36 c -6.9,4.8 -13.2,-14.8 -0.2,-23.6 6.6,12.2 3.5,21.3 0.2,23.6 z"
   id="path2064" />
	</g>
	<g
   id="g2082">
		<path
   d="m 144.2,162.3 c 0,0 0,-0.1 -0.1,-0.1 z"
   id="path2068" />
		<path
   d="m 163.1,160.7 c 0,-0.3 -0.1,-0.5 -0.5,-0.6 -0.1,0 -0.3,0 -0.5,0 -1.1,-0.1 -2.1,-0.1 -3.1,-0.3 -0.7,0 -1.4,-0.1 -2.1,-0.2 -1.5,-0.1 -2.9,-0.2 -4.4,-0.3 -0.1,0 -0.3,0 -0.4,0 -0.1,0 -0.2,0.2 -0.3,0.3 -0.1,0.2 0,0.4 0.2,0.4 0.1,0 0.3,0.1 0.4,0.1 0.4,0 0.9,0 1.4,0.1 0.3,0 0.6,0.1 0.6,0.1 -0.7,2.2 -1,2.8 -1.5,3.8 l -0.7,1.9 c -0.4,1.3 -0.9,2.6 -1.3,3.9 0,0.1 -0.1,0.1 -0.1,0.2 -0.4,0.9 -1.4,3.5 -1.5,3.7 -0.1,-0.1 -1.1,-2.7 -1.6,-3.6 -0.8,-1.7 -1.5,-3.3 -2.3,-5 -0.4,-0.9 -0.8,-1.9 -1.1,-2.8 l -0.1,-0.2 -0.2,-0.6 c 0.9,0 2.5,0 3.4,-0.1 0.3,0 0.6,0 0.8,-0.1 0.3,-0.1 0.3,-0.5 0,-0.7 -0.1,-0.1 -0.3,-0.1 -0.4,-0.2 -0.3,0 -0.6,0 -0.9,0 l -2.3,0.1 c -1.2,0 -2.4,0 -3.6,0 -0.2,0 -0.5,0 -0.7,0 -0.2,0 -0.3,0.4 -0.1,0.6 0.1,0.1 0.2,0.2 0.4,0.3 0.3,0 0.6,0 0.9,0 0.5,0 1,0 1.6,0.1 0.1,0.3 0.2,0.6 0.3,0.9 0.2,0.6 0.4,1.3 0.7,1.9 0.8,1.9 1.7,3.8 2.5,5.6 0.3,0.7 0.6,1.4 0.9,2 0.4,0.8 0.6,1.6 1,2.4 0.3,0.6 0.2,1.2 0,1.8 -0.8,1.8 -1.4,3.7 -2,5.5 -0.4,1.3 -0.8,2.6 -1.2,3.8 -0.1,0.4 -0.3,1 -0.5,1.3 -0.1,0.2 -0.2,0.1 -0.5,0.2 -0.4,0 -0.8,0 -1.1,0 -0.3,0 -0.5,0 -0.8,0 -0.1,0 -0.2,0.1 -0.3,0.2 -0.1,0.2 0,0.4 0.1,0.5 0.1,0.1 0.2,0.1 0.3,0.1 0.3,0 0.6,0 0.8,0 0.7,0 1.5,-0.1 2.3,-0.1 1.5,0 6.8,-0.2 7.6,-0.1 0.2,0 0.4,0 0.5,0 0.2,0 0.4,-0.3 0.4,-0.5 0,-0.2 -0.2,-0.5 -0.5,-0.5 h -1 c -0.3,0 -0.7,0 -1.2,-0.1 0,-0.2 0,-0.5 0.1,-0.7 0.1,-0.8 0.3,-1.6 0.5,-2.5 0.3,-1.6 0.7,-3.2 1.3,-4.8 l 1.8,-4.9 c 0.7,-1.9 1.4,-3.8 2.1,-5.7 0.5,-1.2 0.8,-2.4 1.3,-3.6 0.3,-0.9 0.6,-1.8 0.9,-2.7 0.3,-0.9 0.5,-0.9 0.5,-0.9 0.5,0.1 2.2,0.1 2.7,0.1 0.2,0.3 0.5,0.2 0.5,-0.1 z"
   id="path2070" />
		<path
   d="m 175.2,158.8 c -0.2,0 -2.7,-0.5 -5.1,0.9 -0.6,0.3 -1.3,0.7 -1.9,1.3 -0.3,0.3 -0.7,0.6 -1,0.9 -0.4,0.5 -0.9,1 -1.2,1.6 -3.7,6.6 -3.8,10.4 -3.2,14.2 0.3,1.6 0.7,3.2 1.6,4.7 0.3,0.6 0.7,1.1 1,1.7 0.5,0.8 1.2,1.3 1.7,1.9 0.9,0.7 1.9,1.1 2.8,1.5 0.7,0.2 1.5,0.4 2.2,0.6 0.7,0.1 1.3,0.1 2.1,-0.1 0.7,-0.2 1.4,-0.6 2.1,-1 0.6,-0.3 1.1,-0.9 1.6,-1.4 0.6,-0.7 1.2,-1.4 1.6,-2.3 0.3,-0.6 0.5,-1 0.8,-1.6 0.2,-0.6 0.4,-1.3 0.6,-1.8 0.3,-1.1 0.6,-2.2 0.7,-3.3 0.4,-2.4 0.3,-6.8 -0.2,-9.2 -1.1,-4.7 -2.3,-8.3 -6.2,-8.6 z m 5.1,18.3 c -0.1,0.9 -0.4,1.8 -0.6,2.8 l -0.5,1.1 c -0.5,1.2 -1.7,3.3 -4.1,3.2 -0.5,0 -0.9,-0.2 -1.3,-0.5 -0.9,-0.6 -1.6,-1.3 -2.2,-2.2 -0.2,-0.5 -0.6,-1.1 -0.8,-1.5 -0.5,-1.1 -1,-2.2 -1.2,-3.3 -0.1,-0.7 -0.2,-1.3 -0.4,-1.9 V 174 c -0.1,-0.9 -0.1,-1.8 -0.3,-2.7 0.1,-1.6 0.2,-3.1 0.7,-4.7 0.4,-1.2 0.9,-2.2 1.5,-3.1 0.9,-1.4 1.7,-2.1 3.6,-2.9 1,-0.4 2.3,0 2.9,0.7 1.5,1.4 4.3,8.9 2.7,15.8 z"
   id="path2072" />
		<path
   d="m 208.3,159.6 c -0.2,-0.1 -0.4,-0.1 -0.5,-0.1 -0.1,0 -1.9,0.3 -2.7,0.3 h -0.5 -0.5 -1.4 c -0.2,0 -0.4,0 -0.5,0.2 -0.1,0.1 -0.1,0.3 -0.1,0.4 0,0.1 0.2,0.2 0.4,0.2 0.1,0 0.2,0.1 0.4,0.1 h 0.2 1.1 0.2 c 0.4,0 0.5,0.1 0.5,0.6 v 0.2 c 0,1.7 0,2.8 0,3.3 0,3.4 -0.1,3.4 -0.2,5 v 0.6 c -0.1,0.3 -0.1,0.6 -0.1,0.9 0,0.2 -0.1,0.5 -0.1,0.9 -0.7,4 -1.5,6.3 -2.9,9 -0.5,1.1 -1.2,2.3 -2.2,3.4 -0.4,0.4 -1,1 -1.7,1.1 -0.3,0 -0.7,0.1 -1.1,0.1 -0.1,0 -0.3,0 -0.5,0 -0.5,-0.1 -0.9,-0.3 -1.2,-0.5 -2.2,-1.3 -3.3,-3.1 -3.6,-6 0,-0.3 -0.1,-0.7 -0.1,-1 -0.1,-0.1 -0.1,-0.8 -0.1,-2 -0.1,-3.7 -0.3,-10.8 -0.2,-11.6 v -0.3 L 191,161 c 0.2,0 0.4,0 0.7,-0.1 0.6,-0.1 1.3,0.2 1.3,-0.6 0,-0.1 0,0 0,-0.1 0,-0.4 -0.7,-0.1 -1.4,-0.1 -0.9,0 -1.9,0.1 -2.9,0.1 h -2.5 c -0.3,0 -0.6,0.1 -0.6,0.5 0,0.1 0,0.3 0,0.4 0.1,0.1 0.2,0.2 0.4,0.2 0,0 0.1,0 0.2,0 h 0.5 v 1.1 c -0.3,4.7 -0.4,8.9 -0.3,12.5 0,2.9 0.2,6.7 0.9,8 0.1,0.3 0.3,0.7 0.5,1 0,0.2 0.1,0.3 0.2,0.5 0,0 0.1,0.1 0.1,0.2 0.5,0.8 1.8,2.8 4.5,3.5 0.6,0.1 1.1,0.2 1.7,0.2 0.3,0 0.7,0 1.1,-0.1 0.8,-0.1 1.6,-0.4 2.3,-0.7 3.5,-1.2 6.4,-7.9 7.4,-11.8 0.7,-3.1 1.2,-7.6 1.2,-8.4 v -5.7 -0.5 c 0.1,-0.3 0,-0.2 0.4,-0.3 h 0.7 c 0.5,0.1 1.1,0 1.3,-0.2 0.2,-0.1 0.2,-0.3 0.2,-0.4 -0.3,-0.4 -0.5,-0.5 -0.6,-0.6 z"
   id="path2074" />
		<path
   d="m 251.9,160.6 c -2.6,-0.1 -8.3,0.2 -8.8,0.4 -0.1,0 -0.2,0 -0.4,0.1 -0.1,0.1 -0.3,0.2 -0.2,0.3 0.1,0.4 0.4,0.6 0.8,0.6 h 2 0.2 l -0.2,1.2 c -0.2,0.4 -1.2,5.3 -2.1,9.3 -0.2,1 -0.5,1.9 -0.7,2.8 -0.2,0.8 -0.9,4.3 -1.1,5.2 -0.1,0.6 -0.3,1.2 -0.4,1.9 l -0.6,2.3 c -0.1,0.2 -0.2,0.8 -0.3,1.1 0,0 -0.2,-0.4 -0.3,-0.5 -0.4,-1 -0.7,-2.2 -1,-3.2 -0.3,-1 -0.5,-2 -0.8,-3 -0.4,-1.6 -0.7,-3.7 -0.9,-4.5 -0.1,-0.9 -0.2,-1.8 -0.3,-2.7 0,-0.1 0,-0.1 0,-0.2 0,-0.2 -0.1,-0.3 -0.3,-0.4 -0.4,-0.3 -1,0 -1,0.5 -0.1,0.4 -0.1,0.8 -0.7,3 -0.2,0.9 -0.4,1.7 -0.7,2.7 l -0.8,2.1 -0.8,2.9 c -0.2,0.8 -0.4,1.6 -0.4,0.9 -0.1,-0.6 -0.3,-2.2 -0.4,-2.7 -0.1,-1 -0.4,-2.1 -0.5,-3 l -0.3,-3.1 c -0.1,-0.8 -0.2,-1.7 -0.4,-2.5 l -0.5,-3.9 c -0.2,-1.1 -0.4,-2.2 -0.5,-3.3 -0.1,-0.8 -0.2,-1.5 -0.2,-2.3 0,-0.2 -0.1,-0.6 0,-0.8 0.3,-0.1 0.7,0 1.1,0 0.4,0 0.6,-0.1 0.7,-0.5 0.3,-0.3 0,-0.6 -0.5,-0.6 -0.4,0 -3.3,0.1 -3.8,0 -0.4,0 -4.3,0.1 -4.7,0.6 -0.1,0.1 -0.2,0.3 -0.1,0.5 0.1,0.1 0.2,0.2 0.4,0.2 0.3,0 0.6,0 0.9,0 0.5,0 0.6,0.1 0.6,0.6 0,0.8 0.1,1.1 0.2,2.1 l 0.1,1.7 c 0.1,1 0.2,2 0.4,3.1 0.1,1.2 0.4,2.4 0.8,6.9 0.1,0.8 0.8,7 0.9,7.8 0.1,1 0.4,2 0.6,3.1 0.1,0.2 0.2,0.4 0.5,0.5 l 0.5,-0.1 c 0.3,-0.2 0.7,-0.2 1,-0.3 0.8,0 1.5,-0.2 2.4,-0.2 0.5,0 0.9,-0.4 0.9,-1 0.1,-0.3 0.1,-0.7 0.2,-1 0.3,-0.9 0.5,-1.7 0.8,-2.6 0.2,-0.5 0.3,-1.1 0.5,-1.7 0.3,-1 0.6,-2.2 1,-3.2 0.2,-0.9 0.9,-3.4 1,-3.4 0.1,0 0.2,1 0.3,1.4 0,0.7 0.7,3.7 0.9,4.5 0.3,1.3 0.7,2.7 1.1,3.9 0.3,1.2 0.8,2.3 0.9,3.5 0.1,0.3 0.3,0.5 0.5,0.5 0.3,0 0.5,0 0.8,0 3,-0.2 3.8,0 4,-1 0,-0.2 0.1,-0.4 0.2,-0.7 0.2,-1.2 0.5,-2.4 0.8,-3.6 0.2,-1 0.4,-2.2 0.7,-3.3 0.1,-0.3 0.1,-0.7 0.2,-1.1 0.3,-1.4 0.5,-2.7 0.8,-4 0.1,-0.5 0.2,-1 0.3,-1.4 l 2.5,-11 c 0,0 0,0 0,-0.1 0.4,0 0.8,-0.1 1.3,-0.2 0.2,-0.1 0.7,0.1 0.8,-0.6 0.5,-0.2 0.3,-0.4 0.1,-0.5 z"
   id="path2076" />
		<path
   d="M 264.8,160.2 H 263 c -0.4,0 -1,0 -1.5,0 -0.7,0.1 -4.7,0.1 -5.6,0.2 h -0.2 c -0.2,0.1 -0.4,0.3 -0.4,0.5 0,0.1 0.1,0.3 0.3,0.4 0.1,0 0.2,0 0.2,0 0.3,0 0.7,0 1.1,0 h 1.3 c 0.1,0.1 0.1,0.1 0.1,0.1 0,1.1 -0.1,6 -0.2,7.2 0,0.3 0,4.9 -0.1,6.1 0,1.2 -0.1,2.3 -0.1,3.5 0,0.7 -0.1,7.4 -0.1,8.3 0,0.5 -0.1,0.1 -0.6,0.3 -0.1,0 -0.3,0 -0.4,0 -0.1,0 -0.2,0 -0.4,0 -0.2,0.1 -0.3,0.5 -0.3,0.7 0,0.3 0.3,0.4 0.7,0.4 h 0.2 c 0.5,-0.1 1.2,-0.1 1.9,-0.1 1.3,-0.1 2.7,0.1 4.1,0 0.2,0 0.4,0 0.6,0.1 0.2,0 0.4,0 0.6,0 0.3,0.1 0.6,-0.1 0.8,-0.1 0.1,-0.1 0.2,-0.6 0,-0.9 -0.1,-0.2 -0.4,-0.2 -0.7,-0.2 -0.2,0 -0.4,0 -0.6,0 -0.2,0.1 -0.5,0 -0.6,0 0,0 0,-0.1 0,-0.2 0,-0.1 0,-0.3 0,-0.4 v -1.8 c 0,-0.2 0,-0.4 0.2,-4.6 0,-0.4 0,-0.8 0,-1.2 0,-0.7 0.3,-9.9 0.3,-11.2 0,-0.7 0.1,-1.4 0.1,-2 0,-0.3 0,-0.8 0.1,-1.1 0,-0.9 0.2,-1.8 0.3,-2.7 0,-0.1 0,-0.1 0.1,-0.2 0.1,0 0.2,-0.1 0.3,-0.1 h 1.8 c 0.3,0 0.5,-0.2 0.6,-0.6 -0.3,-0.5 -1.4,-0.2 -2.1,-0.4 z"
   id="path2078" />
		<path
   d="m 291.9,159.8 c -0.1,-0.2 -0.3,-0.2 -0.6,-0.2 l -3.4,-0.3 c -0.7,0.1 -1.5,-0.1 -2.3,-0.1 -0.5,0 -1.2,0.1 -1.8,0.1 -0.3,0 -0.5,0.3 -0.4,0.6 0,0.4 0.2,0.7 0.5,0.7 0.2,0 0.3,-0.1 0.5,-0.1 0.4,0 0.7,-0.1 0.9,0 0.1,0.5 0.1,0.9 0,1.4 l -0.5,9 c 0,1.3 -0.2,2.6 -0.2,3.8 -0.1,1.4 -0.2,2.8 -0.2,4.2 0,1.5 0,2.9 0,4.4 0,0.1 0,0.7 0,1 -0.4,-0.3 -0.6,-1.2 -0.7,-1.5 -0.5,-1.1 -0.9,-2.2 -1.4,-3.2 -0.4,-0.9 -0.8,-2 -1.1,-2.9 l -2.9,-7.8 c -0.2,-0.7 -0.6,-1.3 -0.8,-1.9 -0.4,-1.6 -1,-3 -1.4,-4.4 -0.1,-0.5 -0.3,-1.2 -0.4,-1.8 0.2,-0.2 0.7,-0.2 0.8,-0.3 0.3,0 0.3,-0.5 0.1,-0.8 -0.1,-0.1 -1,-0.1 -1.3,-0.1 -1,0 -2,0.1 -3.1,0.2 -0.8,0 -1.6,0 -2.4,0 -0.3,0 -0.4,0.2 -0.5,0.5 0,0.3 0,0.6 0.3,0.8 0.2,0.1 0.5,0 0.7,0.1 0,0.6 0.1,1.2 0.1,1.9 0,2.5 0,5 -0.1,7.5 0,1.7 -0.1,3.4 0,5 0,2 0,4 0,6 0,1.4 0,2.8 0.1,4.2 0,0.3 0,0.5 0,0.7 -0.1,0.1 -0.2,0.1 -0.2,0.1 -0.3,0.2 -0.5,0.4 -0.5,0.9 0,0.3 0.2,0.5 0.6,0.5 0.6,0 1.2,0 1.8,-0.3 1.3,-0.2 2.5,-0.7 3.8,-0.7 0.2,0 0.5,-0.3 0.7,-0.4 0.2,-0.1 0.3,-0.4 0,-0.7 -0.1,0 -0.3,-0.1 -0.4,-0.1 -0.3,-0.1 -0.5,0 -0.7,-0.1 0,-0.1 0,-0.4 0,-0.6 0,-0.9 0,-1.8 0.1,-2.7 0,-1.5 0,-3 0,-4.5 0,-2 -0.1,-3.9 0,-5.8 0,-2.1 0.2,-4.2 0.1,-6.2 0,-0.1 0,-1 0.2,-0.2 0.5,2.2 1.6,4.2 4.2,11.3 1.1,2.8 2.1,5.5 3.5,8.1 0.1,0.3 0.3,0.5 0.3,0.9 0,0 -0.1,0 -0.1,0.2 -0.4,0.5 -0.2,1 0.2,1.1 0.1,0.1 0.3,0.1 0.6,0.1 1.4,0 2.8,0 4.3,-0.2 0.3,0 0.7,-0.1 1,-0.1 0.2,-0.1 0.3,-0.3 0.3,-0.4 0.1,-0.1 0,-0.4 -0.1,-0.5 -0.2,-0.1 -0.5,-0.3 -0.7,-0.4 -0.1,-0.4 -0.1,-1 -0.2,-1.5 0,-2 0,-3.3 0.6,-22.1 0,-0.3 0,-0.5 0,-0.8 0.1,-0.6 0.2,-0.6 0.6,-0.6 0.3,0 0.7,0.1 0.9,0.1 0.3,0 0.5,0 0.6,-0.2 0.1,-0.2 0.2,-0.6 0,-0.9 z"
   id="path2080" />
	</g>
	<g
   id="g2090">
		<path
   d="m 112.1,215.3 c -0.9,-0.1 -1.6,0.5 -1.8,1.3 0,0.9 0.5,1.7 1.3,1.8 12.1,0.9 14.5,-19.8 0.1,-24.3 -2.7,-0.9 -5.5,-1.3 -8.1,-1.2 -18.5,1.2 -25.4,29.8 -3.9,35.3 8.3,2.2 12.2,10 11.2,16.2 -0.7,6 -4.1,11.5 -7.3,11.8 -7.9,0.5 -11.9,-8.7 -7.7,-15.9 l 1.3,-1.8 c 0.5,-0.6 0.4,-1.6 -0.3,-2.1 -0.6,-0.6 -1.6,-0.4 -2.1,0.3 l -1.5,2.1 c -5.4,9 -0.2,20.3 9.9,21.4 15.5,1.6 21.3,-21.8 8.2,-29.8 -1.5,-0.9 -2.8,-1.6 -4.2,-2 -17,-5.6 -15,-33.2 0.8,-31.9 14.1,1.1 12.6,19.5 4.1,18.8 z"
   id="path2084" />
		<path
   d="m 242.2,215.8 c 0.6,-6.8 -6.9,-6.9 -7.8,-1 -0.1,7.4 7.3,5.8 7.8,1 z"
   id="path2086" />
		<path
   d="m 343.7,228.6 c -3.8,-0.1 -8,0.6 -13,2.2 -3.5,-2.3 -5.7,-3.5 -7,-5 3.3,-9.3 5.7,-18.5 -0.7,-19.1 -10.6,-0.9 -10.6,17.7 -3.8,21.8 -0.1,0.2 -0.1,0.4 -0.2,0.6 -2.8,7.8 -7.1,9.1 -9.2,7.8 -2,-1.2 -2.7,-3.6 -2.8,-6 6,-1.6 9,-10.3 4.6,-12.5 -7.3,-3.5 -12,3.7 -12.2,11 0,0 0,0.1 0,0.1 -3.2,8.3 -4.5,11.4 -6.8,16.2 -8.5,17.8 -1.6,-30.8 -1.3,-32.8 1,-5.3 -3.4,-8.5 -7.1,-4.6 -2.2,1.9 -6.4,12 -9.6,21.5 -2.5,7.5 -5.7,16.5 -3.8,3.1 2.4,-17 -1.6,-17.7 -4.7,-13.4 -2.3,3.2 -3.5,5.7 -6.8,12.1 -4.2,8.2 -2.4,2.4 -2,-6.2 0,-3.5 -7.7,-4.9 -7.7,-2.1 -0.1,1.1 -0.2,3.5 -0.2,6.2 -6,16 -9.7,16.9 -9.5,14.2 -0.5,-3.7 0.9,-15.2 1.2,-17.9 0.4,-2 -7,-3.4 -7.4,-1.4 -0.1,0.8 -0.3,2.8 -0.6,5.3 0,0 0,0 0,0 -5.8,16.4 -10.8,26.2 -9,3.8 0.5,-6.6 0.6,-19.8 0.6,-27 3.5,0.1 6.6,-0.5 9,-3.6 0.5,-0.7 0.2,-1.7 -0.5,-2.2 -0.7,-0.4 -1.6,-0.2 -2.1,0.5 -1.4,2 -3.9,2.4 -6.4,2.3 -0.1,-2.2 -0.2,-4.2 -0.5,-6.1 -0.3,-2 -9.6,-0.5 -9.2,1.5 0.2,1.1 0.3,2.4 0.4,3.5 -2.9,-0.2 -5.9,0.1 -7.4,2.7 -0.4,0.8 0,1.7 0.8,2 0.8,0.4 1.6,0 2,-0.8 0.5,-0.9 2.6,-0.9 4.8,-0.8 0.4,6.1 0.2,16.5 0.2,23.8 -2.8,7.6 -7,9 -9.1,7.7 -2,-1.2 -2.7,-3.6 -2.8,-6 6,-1.6 9,-10.3 4.6,-12.5 -7.3,-3.5 -12,3.7 -12.2,11 0,0 0,0.1 0,0.1 -3.2,8.3 -4.5,11.4 -6.8,16.2 -8.5,17.8 -1.6,-30.8 -1.3,-32.8 1,-5.3 -3.4,-8.5 -7.1,-4.6 -2.2,1.9 -6.4,12 -9.6,21.5 -2.5,7.5 -5.7,16.5 -3.8,3.1 2.4,-17 -1.6,-17.7 -4.7,-13.4 -2.3,3.2 -3.5,5.7 -6.8,12.1 -4.2,8.2 -2.4,2.4 -2,-6.2 0,-3.5 -7.7,-4.9 -7.7,-2.1 0,1 -0.2,3.2 -0.2,5.7 -1.5,1.3 -2.9,2.6 -6.4,3.5 1.5,-11.2 -1.2,-23.6 -10,-22.1 -8.2,1.3 -11.4,14.6 -6,21.8 -1.3,3.2 -1.8,6.8 -1.4,10.6 0.5,5.3 3.8,8.9 9.1,6.4 3.6,-1.7 6.3,-7 7.7,-13.1 2.3,-0.5 5.1,-1.6 7.2,-3.1 0.3,4.8 1.4,9.4 4.3,9.8 3.8,0.5 7.1,-7.3 8.1,-9.4 6.8,-14 -4.2,14.5 7.7,14.5 1.2,0 2.2,-1.5 2.8,-2.6 3,-5.6 6,-17 8.5,-23.2 6.5,-16.8 -8.2,31 7.1,34.4 3.9,0.9 9.2,-12.5 12.1,-20.7 1.2,3.1 3.6,5.5 7.5,5.9 4.4,0.4 8.1,-0.8 11.1,-5.2 -0.2,6.4 -0.1,19.1 6.7,18.3 4.2,-0.5 7.8,-8 10.4,-14.8 0.1,5.8 1.1,11.2 4.5,12.2 5.2,1.6 9.6,-7.5 12.8,-15.5 0.6,3.3 1.7,6 3.9,6.3 3.8,0.5 7.1,-7.3 8.1,-9.4 6.8,-14 -4.2,14.5 7.7,14.5 1.2,0 2.2,-1.5 2.8,-2.6 3,-5.6 6,-17 8.5,-23.2 6.5,-16.8 -8.2,31 7.1,34.4 3.9,0.9 9.2,-12.5 12.1,-20.7 1.2,3.1 3.6,5.5 7.5,5.9 5.4,0.5 9.9,-1.5 13.1,-9 0.5,-0.9 1,-1.8 1.2,-2.3 0.8,0.6 2.5,1.4 3.8,3.3 -15.3,9.7 -10,35.7 2.1,30.6 12.2,-5 14,-21 5.5,-30.5 3.1,-0.9 6.2,-1.7 10.9,-2 2,-0.8 1.4,-3.5 -0.7,-3.5 z m -36.5,-2 c 0.5,-8.6 6.4,-2.6 -0.1,1.2 0.1,-0.6 0.1,-0.7 0.1,-1.2 z m -103.2,0 c 0.5,-8.6 6.4,-2.6 -0.1,1.2 0.1,-0.6 0.1,-0.7 0.1,-1.2 z m -70.2,15.9 c -3.2,5.4 -6,3.8 -3.5,-6.4 1.6,0.4 3.5,0.5 5.7,0.3 -0.6,2.2 -1.2,4.4 -2.2,6.1 z m 2.8,-9.2 c -2.1,0.3 -4,0.2 -5.5,-0.2 0.1,-2.3 1.4,-5.6 1.8,-6.9 0.6,-0.7 -2.6,-4.4 -4.1,-2.6 -1.4,1.5 -2.3,3.4 -3.2,5.1 -2.8,-5.4 -0.5,-13.7 4.2,-15.3 5.6,-1.9 7.1,6.1 7.4,9.9 0.1,2.4 0,6.1 -0.6,10 z m 183.9,-9.5 c -1.9,-1.6 -2.7,-14.5 1.7,-13.9 2.7,0.4 0.1,7.5 -1.7,13.9 z m 7,36.1 c -6.9,4.8 -13.2,-14.8 -0.2,-23.6 6.6,12.2 3.5,21.3 0.2,23.6 z"
   id="path2088" />
	</g>
	<g
   id="g2110">
		<path
   d="m 141,271.6 c 0,-0.3 -0.1,-0.5 -0.5,-0.6 -0.1,0 -0.3,0 -0.5,0 -1.1,-0.1 -2.1,-0.1 -3.1,-0.3 -0.7,0 -1.4,-0.1 -2.1,-0.2 -1.5,-0.1 -2.9,-0.2 -4.4,-0.3 -0.1,0 -0.3,0 -0.4,0 -0.1,0 -0.2,0.2 -0.3,0.3 0,0.2 0,0.4 0.2,0.4 0.1,0 0.3,0.1 0.4,0.1 0.4,0 0.9,0 1.4,0.1 0.3,0 0.6,0.1 0.6,0.1 -0.7,2.2 -1,2.7 -1.5,3.8 l -0.7,1.9 c -0.4,1.3 -0.9,2.6 -1.3,3.9 0,0.1 -0.1,0.1 -0.1,0.2 -0.4,0.9 -1.4,3.5 -1.5,3.7 -0.1,-0.1 -1.1,-2.7 -1.6,-3.6 -0.8,-1.7 -1.5,-3.3 -2.3,-5 -0.4,-0.9 -0.8,-1.9 -1.1,-2.8 l -0.1,-0.2 -0.2,-0.6 c 0.9,0 2.5,0 3.4,-0.1 0.3,0 0.6,0 0.8,-0.1 0.3,-0.1 0.3,-0.5 0,-0.7 -0.1,-0.1 -0.3,-0.1 -0.4,-0.2 -0.3,0 -0.6,0 -0.9,0 l -2.3,0.1 c -1.2,0 -2.4,0 -3.6,0 -0.2,0 -0.5,0 -0.7,0 -0.2,0 -0.3,0.4 -0.1,0.6 0.1,0.1 0.2,0.2 0.4,0.3 0.3,0 0.6,0 0.9,0 0.5,0 1,0 1.6,0.1 0.1,0.3 0.2,0.6 0.3,0.9 0.2,0.6 0.4,1.3 0.7,1.9 0.8,1.9 1.7,3.8 2.5,5.6 0.3,0.7 0.6,1.4 0.9,2 0.4,0.8 0.6,1.6 1,2.4 0.3,0.6 0.2,1.2 0,1.8 -0.8,1.8 -1.4,3.7 -2,5.5 -0.4,1.3 -0.8,2.6 -1.2,3.8 -0.1,0.4 -0.3,1 -0.5,1.3 -0.1,0.2 -0.2,0.1 -0.5,0.2 -0.4,0 -0.8,0 -1.1,0 -0.3,0 -0.5,0 -0.8,0 -0.1,0 -0.2,0.1 -0.3,0.2 -0.1,0.2 0,0.4 0.1,0.5 0.1,0.1 0.2,0.1 0.3,0.1 0.3,0 0.6,0 0.8,0 0.7,0 1.5,-0.1 2.3,-0.1 1.5,0 6.8,-0.2 7.6,-0.1 0.2,0 0.4,0 0.5,0 0.2,0 0.4,-0.3 0.4,-0.5 0,-0.2 -0.2,-0.5 -0.5,-0.5 h -1 c -0.3,0 -0.7,0 -1.2,-0.1 0,-0.2 0,-0.5 0.1,-0.7 0.1,-0.8 0.3,-1.6 0.5,-2.5 0.3,-1.6 0.7,-3.2 1.3,-4.8 l 1.8,-4.9 c 0.7,-1.9 1.4,-3.8 2.1,-5.7 0.5,-1.2 0.8,-2.4 1.3,-3.6 0.3,-0.9 0.6,-1.8 0.9,-2.7 0.3,-0.9 0.5,-0.9 0.5,-0.9 0.5,0.1 2.2,0.1 2.7,0.1 0.2,0.4 0.5,0.2 0.5,-0.1 z"
   id="path2092" />
		<path
   d="m 122.1,273.2 c 0,0 0,-0.1 0,-0.1 z"
   id="path2094" />
		<path
   d="m 153.1,269.7 c -0.2,0 -2.7,-0.5 -5.1,0.9 -0.6,0.3 -1.3,0.7 -1.9,1.3 -0.3,0.3 -0.7,0.6 -1,0.9 -0.4,0.5 -0.9,1 -1.2,1.6 -3.7,6.6 -3.8,10.4 -3.2,14.2 0.3,1.6 0.7,3.2 1.6,4.7 0.3,0.6 0.7,1.1 1,1.7 0.5,0.8 1.2,1.3 1.7,1.9 0.9,0.7 1.9,1.1 2.8,1.5 0.7,0.2 1.5,0.4 2.2,0.6 0.7,0.1 1.3,0.1 2.1,0 0.7,-0.2 1.4,-0.6 2.1,-1 0.6,-0.3 1.1,-0.9 1.6,-1.4 0.6,-0.7 1.2,-1.4 1.6,-2.3 0.3,-0.6 0.5,-1 0.8,-1.6 0.2,-0.6 0.4,-1.3 0.6,-1.8 0.3,-1.1 0.6,-2.2 0.7,-3.3 0.4,-2.4 0.3,-6.8 -0.2,-9.2 -1.1,-4.8 -2.3,-8.4 -6.2,-8.7 z m 5.2,18.3 c -0.1,0.9 -0.4,1.8 -0.6,2.8 l -0.5,1.1 c -0.5,1.2 -1.7,3.3 -4.1,3.2 -0.5,0 -0.9,-0.2 -1.3,-0.5 -0.9,-0.6 -1.6,-1.3 -2.2,-2.2 -0.2,-0.5 -0.6,-1.1 -0.8,-1.5 -0.5,-1.1 -1,-2.2 -1.2,-3.3 -0.1,-0.7 -0.2,-1.3 -0.4,-1.9 V 285 c -0.1,-0.9 -0.1,-1.8 -0.3,-2.7 0.1,-1.6 0.2,-3.1 0.7,-4.7 0.4,-1.2 0.9,-2.2 1.5,-3.1 0.9,-1.4 1.7,-2.1 3.6,-2.9 1,-0.4 2.3,0 2.9,0.7 1.4,1.3 4.2,8.8 2.7,15.7 z"
   id="path2096" />
		<path
   d="m 186.2,270.5 c -0.2,-0.1 -0.4,-0.1 -0.5,-0.1 -0.1,0 -1.9,0.3 -2.7,0.3 h -0.5 -0.5 -1.4 c -0.2,0 -0.4,0 -0.5,0.2 -0.1,0.1 -0.1,0.3 -0.1,0.4 0,0.1 0.2,0.2 0.4,0.2 0.1,0 0.2,0.1 0.4,0.1 h 0.2 1.1 0.2 c 0.4,0 0.5,0.1 0.5,0.6 v 0.2 c 0,1.7 -0.1,2.8 -0.1,3.3 0,3.4 -0.1,3.4 -0.2,5 v 0.6 c -0.1,0.3 -0.1,0.6 -0.1,0.9 0,0.2 -0.1,0.5 -0.1,0.9 -0.7,4 -1.5,6.3 -2.9,9 -0.5,1.1 -1.2,2.3 -2.2,3.4 -0.4,0.4 -1,1 -1.7,1.1 -0.3,0.1 -0.7,0.1 -1.1,0.1 -0.1,0 -0.3,0 -0.5,0 -0.5,-0.1 -0.9,-0.3 -1.2,-0.5 -2.2,-1.3 -3.3,-3.1 -3.6,-6 0,-0.3 -0.1,-0.7 -0.1,-1 -0.1,-0.1 -0.1,-0.8 -0.1,-2 -0.1,-3.7 -0.3,-10.8 -0.2,-11.6 v -0.3 -3.4 c 0.2,0 0.4,0 0.7,-0.1 0.6,-0.1 1.3,0.2 1.3,-0.6 0,-0.1 0,0 0,-0.1 0,-0.4 -0.7,-0.1 -1.4,-0.1 -0.9,0 -1.9,0.1 -2.9,0.1 h -2.5 c -0.3,0 -0.6,0.1 -0.6,0.5 0,0.1 0,0.3 0,0.4 0.1,0.1 0.2,0.2 0.4,0.2 0,0 0.1,0 0.2,0 h 0.5 v 1.1 c -0.3,4.7 -0.4,8.9 -0.3,12.5 0,2.9 0.2,6.7 0.9,8.1 0.1,0.3 0.3,0.7 0.5,1 0,0.2 0.1,0.3 0.2,0.5 0,0 0.1,0.1 0.1,0.2 0.5,0.8 1.8,2.8 4.5,3.5 0.6,0.1 1.1,0.2 1.7,0.2 0.3,0 0.7,0 1.1,-0.1 0.8,-0.1 1.6,-0.4 2.3,-0.7 3.5,-1.2 6.4,-7.9 7.4,-11.8 0.7,-3.1 1.2,-7.6 1.2,-8.4 v -5.7 -0.5 c 0.1,-0.3 0,-0.2 0.4,-0.3 h 0.7 c 0.5,0.1 1.1,0 1.3,-0.2 0.2,-0.1 0.2,-0.3 0.2,-0.4 -0.1,-0.5 -0.3,-0.6 -0.4,-0.7 z"
   id="path2098" />
		<path
   d="m 218.8,295.4 c -0.2,-0.2 -0.5,0 -0.7,0.2 0,0 0,0 0,0 -0.2,0.4 -0.5,0.7 -0.7,1.2 -0.3,0.5 -0.8,0.8 -1.4,0.9 -0.6,0.1 -1.2,0.2 -1.7,0.2 -0.7,0 -1.4,0 -2,0 -0.9,0 -1.8,-0.1 -2.7,-0.2 -0.3,0 -0.6,-0.1 -0.8,-0.2 0,0 0,-0.1 -0.1,-0.1 0,-0.9 -0.1,-1.8 -0.1,-2.6 0,-0.7 -0.1,-6 -0.1,-8 l 0.1,-3.7 c 0,-0.9 0.1,-2 0.1,-3 0,-0.8 0.1,-1.8 0.2,-2.6 0,-1 0,-1.9 0.1,-2.8 0,-0.7 0,-1.4 0,-2.2 0,-0.3 0,-0.7 0.2,-1 0.1,0 0.3,-0.1 0.4,-0.1 0.3,0 0.8,-0.1 1.1,0 0.2,0 0.4,-0.2 0.5,-0.4 0.1,-0.1 0.1,-0.3 0,-0.3 -0.1,-0.1 -0.4,-0.3 -0.7,-0.3 -0.2,0 -0.4,0 -0.6,0 -0.2,0 -0.5,0 -0.7,0 l -1.8,0.1 c -0.5,0 -1,0 -1.5,0 -0.9,0 -1.7,0 -2.6,0 h -0.9 c -0.2,0 -0.4,0 -0.7,0 -0.2,0 -0.5,0.1 -0.7,0.3 -0.1,0.1 -0.1,0.2 0,0.4 0.2,0.2 0.5,0.3 0.7,0.2 h 1.2 c 0.3,0.1 0.4,0.2 0.3,0.5 0.1,0.5 0.1,1.1 0.1,1.6 -0.1,1.7 -0.1,3.4 -0.2,5.1 0,0.7 0,1.4 -0.1,2.2 0,1.1 -0.1,2.2 -0.1,3.4 0,1 -0.1,2 -0.1,3 0.1,1.5 -0.2,8 -0.2,8.4 0,0.5 0,1.1 -0.1,1.5 -0.1,0 -0.1,0.1 -0.1,0.1 h -0.7 c -0.2,0 -0.4,0.1 -0.6,0.2 -0.3,0.1 -0.4,0.7 0,1 0.1,0.1 0.3,0.1 0.4,0.1 0.2,0 0.5,0 0.7,0 1,0 2.1,0 3.1,0.1 l 3.9,0.4 c 0.3,0 0.5,0.1 0.8,0.1 0.6,0.1 1.1,0.1 1.7,0.1 0.6,0 1.1,0.1 1.6,0 0.6,0 1.1,0 1.7,0 0.3,0 0.8,-0.1 1.2,-0.1 0.6,0 1.1,-0.3 1.6,-0.8 0.6,-0.5 0.9,-1.2 1.4,-1.9 0.1,-0.5 -0.1,-0.8 -0.4,-1 z"
   id="path2100" />
		<path
   d="m 240.9,295.8 c -0.2,0 -0.4,0 -0.5,0.2 -0.2,0.1 -0.4,0.4 -0.5,0.7 -0.2,0.6 -0.7,0.9 -1.3,1.1 -0.3,0.1 -0.5,0.2 -0.9,0.2 -0.9,0.2 -2,0.3 -2.9,0.1 -1.6,0 -3.1,-0.1 -4.8,-0.2 -0.6,0 -0.7,-0.2 -0.7,-0.8 -0.1,-0.4 0,-0.7 0,-1.1 0.1,-1.3 0.1,-2.5 0.1,-3.7 0,-1.2 0.1,-2.2 0.1,-3.4 0,-0.6 0,-1.3 0,-2 0,-0.2 0,-0.6 0,-0.6 0.5,-0.1 1.4,0 1.8,-0.1 l 4.2,0.1 h 0.1 c 0.3,0 0.4,-0.2 0.5,-0.4 0.1,-0.2 0,-0.4 -0.1,-0.6 -0.2,-0.2 -0.5,-0.1 -0.9,-0.1 -1.6,0.2 -3.2,0 -4.9,0 -0.4,0 -0.5,-0.2 -0.5,-0.5 0,-0.3 0,-0.6 0,-0.9 0,-1.3 0.1,-2.6 0.2,-3.9 l 0.3,-5.1 c 0,-0.8 0,-1.4 0.1,-2.2 0,-0.4 0,-0.5 0.1,-0.5 h 2.4 c 2.2,-0.1 4.2,-0.2 6.3,0 0.4,0 0.7,-0.1 0.9,-0.4 0.1,-0.1 0.1,-0.3 0,-0.4 -0.1,-0.1 -0.4,-0.3 -0.8,-0.2 -2,0.2 -3.9,0 -5.3,0.2 -1.3,0 -2.7,0 -3.9,0 -0.3,0 -4.2,0.2 -6,0.2 -0.6,0 -1.3,0 -1.9,0.1 -0.2,0 -0.3,0 -0.4,0 -0.1,0.1 -0.1,0.3 -0.2,0.5 0,0.1 0.1,0.2 0.3,0.2 0.3,0 0.4,0 0.7,0 0.5,0 0.9,0 1.4,0 0,1 -0.5,15.4 -0.5,16.3 -0.1,2.1 -0.1,4.3 -0.2,6.4 0,1 0,2 0.1,3 v 0.5 c 0.1,0.3 0.4,0.6 0.7,0.6 l 2.7,-0.1 c 1,0 2.2,0 3,0 1,0 1.7,0 2.6,0.1 1.5,0.1 3,0.1 4.5,0 1.3,0 2.5,-0.6 3.5,-1.4 0.3,-0.4 0.5,-0.9 0.6,-1.3 0.3,-0.4 0.2,-0.5 0,-0.6 z"
   id="path2102" />
		<path
   d="m 265.2,297.3 c 0,-0.1 0,-0.3 -0.1,-0.4 -0.1,-0.4 -0.7,-3 -0.8,-4 -0.1,-1 -0.6,-3.9 -0.6,-4.1 l -0.3,-2.4 c -1.3,-8.6 -2.5,-13.6 -2.5,-14.1 0,-0.2 0.1,-0.3 0.5,-0.3 1,0 1.4,0.1 1.6,-0.5 0,-0.1 -0.3,-0.3 -0.3,-0.3 -0.2,0 -2,-0.2 -7.5,-0.2 -1,0.1 -1.8,0 -2.7,0.1 H 251 c -0.6,0 -1.3,0.6 -0.6,1.1 0.1,0.1 0.4,0 1.2,0 0.3,0 0.4,0 0.4,0.1 l -1,4.2 c -0.2,0.7 -0.4,1.4 -0.5,2.1 -0.2,0.6 -1.3,4.6 -1.5,5.3 -0.4,1 -0.6,2.1 -0.9,3 -0.1,0.8 -0.9,3.2 -0.9,3.8 -0.5,2.7 -1.6,6 -1.8,7 0,0.2 0,0.3 -0.1,0.5 -0.1,0.2 -0.2,0.2 -0.3,0.3 -0.2,0.1 -0.5,0.1 -0.8,0.1 -0.3,0 -0.4,0.2 -0.4,0.4 -0.1,0.3 1.1,0.5 1.3,0.5 0.4,0 0.9,-0.1 1.5,-0.2 0.7,0 5.1,-0.6 5.5,-0.5 0.3,0 0.5,-0.1 0.8,-0.4 0.2,-0.2 0.1,-0.5 -0.2,-0.6 -0.7,0 -1.5,0 -1.5,0 0,-0.4 0.2,-1.3 0.2,-1.8 0.2,-1.5 0.4,-3 0.7,-4.3 0.4,-1.2 0.4,-2.4 0.8,-3 0,-0.2 0.3,-0.2 0.5,-0.2 0.7,0 1.4,0 2,-0.1 0.7,-0.1 1.4,-0.1 2.1,-0.1 0.1,0 0.3,-0.1 0.6,0 0.1,0 0.1,0.3 0.1,0.5 0,0.2 0.7,4.4 1,5.4 0,0.8 0.6,3.7 0.6,3.9 -0.7,0.2 -1.1,0.9 -0.6,1.1 0.5,0.3 1.8,0 2.7,-0.1 2.2,-0.2 2,-0.3 4.3,-0.6 0.3,-0.2 0.4,-0.4 0.4,-0.6 0.3,-0.7 -0.6,-0.8 -1.4,-0.6 z m -7.7,-10.2 c -0.4,0 -2.4,0.2 -3.5,0.2 -0.2,0 -1.1,0 -0.8,0 0.2,-1.3 0.4,-2.1 0.5,-2.8 0.3,-0.7 0.4,-1.6 1.4,-4.5 l 1.5,-5 c 0,-0.1 0.1,-0.6 0.1,-0.6 0.3,0.1 0.3,3 0.4,4.1 0,0.4 0.7,7.8 0.7,8.3 0.1,0.3 0.1,0.3 -0.3,0.3 z"
   id="path2104" />
		<path
   d="m 285.3,272.3 c -1,-0.6 -2,-1.1 -3.2,-1.4 -1.8,-0.5 -3.6,-0.8 -5.4,-0.7 -1.2,0 -2.4,0 -3.3,0.1 -1.2,0.1 -2.2,0.3 -3.2,0.4 -0.3,0.1 -0.5,0.1 -0.7,0.3 -0.1,0 0,0.5 0,0.5 0.3,0.2 0.6,0.2 0.8,0.1 0.2,0 1.5,-0.1 1.5,-0.1 -0.1,0.6 -0.1,1.8 -0.1,2.4 l -0.3,5.2 c 0,2.2 -0.2,4.4 -0.2,6.7 0,1.4 -0.1,2.8 -0.1,4.4 0,7.1 0.2,7.5 0.3,7.5 h -0.1 c -0.3,0 -0.6,0 -1.4,0.1 -0.4,0 -0.6,0.2 -0.6,0.6 0,0.3 0.2,0.6 0.6,0.6 v 0 c 0.1,0 0.3,0 0.5,0 1,0 1.9,-0.2 2.9,-0.2 0.7,0 1.5,-0.1 2.2,-0.1 0.5,0 0.6,-0.2 0.7,-0.7 0,-1 0.2,-2.1 0.1,-3.1 0,-1.8 -0.2,-3.4 -0.2,-5.2 0,-0.1 0,-0.5 0,-0.7 l 0.3,0.1 c 1,0.3 2.1,1.3 2.8,2.1 1.4,2.1 2.9,4.1 4.5,6.1 0.4,0.6 0.8,0.9 1.2,1.4 l 0.7,0.5 c 0.8,0.2 1.1,-0.6 0.5,-1.1 h 0.1 c -0.1,0 -0.2,-0.1 -0.2,-0.1 v 0 c -0.7,-0.4 -1.1,-0.9 -1.6,-1.3 -0.5,-0.6 -1,-1.4 -1.5,-2.1 -0.8,-1.2 -1.8,-2.4 -2.5,-3.4 -1.4,-2.2 -2,-2.8 -2.7,-2.9 v 0 l 1.2,-0.3 c 2.8,-1 5.9,-2.5 7.9,-5.4 1.1,-1.7 1.3,-2.6 1.6,-4.6 -0.2,-2.7 -1.4,-4.4 -3.1,-5.7 z m -1.6,11.8 c -1,0.8 -2.4,1.6 -3.8,2.1 -0.7,0.4 -1.5,0.5 -2.6,0.7 -0.2,0 -0.9,0 -1.2,0 0,0 -0.1,-0.2 -0.1,-0.9 0,-1.7 0.1,-3.5 0.2,-5.3 0.1,-1.8 0.6,-7.5 0.7,-9.2 0,-0.1 -0.1,-0.2 0.1,-0.4 1.4,0 3.8,0.1 6.6,1.3 2.1,1 3.2,2.2 3.4,3.7 0.6,2.9 -1,6.6 -3.3,8 z"
   id="path2106" />
		<path
   d="m 313.9,270.7 c 0,-0.2 -0.3,-0.2 -0.6,-0.2 l -3.4,-0.3 c -0.7,0.1 -1.5,-0.1 -2.3,-0.1 -0.5,0 -1.2,0.1 -1.8,0.1 -0.3,0 -0.5,0.3 -0.4,0.6 0,0.4 0.2,0.7 0.5,0.7 0.2,0 0.3,-0.1 0.5,-0.1 0.4,0 0.7,-0.1 0.9,0 0.1,0.5 0.1,0.9 0,1.4 l -0.5,9 c 0,1.3 -0.2,2.6 -0.2,3.8 -0.1,1.4 -0.2,2.8 -0.2,4.2 0,1.5 0,2.9 0,4.4 0,0.1 0,0.7 0,1 -0.4,-0.3 -0.6,-1.2 -0.7,-1.5 -0.5,-1.1 -0.9,-2.2 -1.4,-3.2 -0.4,-0.9 -0.8,-2 -1.1,-2.9 l -2.9,-7.8 c -0.2,-0.7 -0.6,-1.3 -0.8,-1.9 -0.4,-1.6 -1,-3 -1.4,-4.4 -0.1,-0.5 -0.3,-1.2 -0.4,-1.8 0.2,-0.2 0.7,-0.2 0.8,-0.3 0.3,0 0.3,-0.5 0.1,-0.8 -0.1,-0.1 -1,-0.1 -1.3,-0.1 -1,0 -2,0.1 -3.1,0.2 -0.8,0 -1.6,0 -2.4,0 -0.3,0 -0.4,0.2 -0.5,0.5 0,0.3 0,0.6 0.3,0.8 0.2,0.1 0.5,0 0.7,0.1 0,0.6 0.1,1.2 0.1,1.9 0,2.5 0,5 -0.1,7.5 0,1.7 -0.1,3.4 0,5 0,2 0,4 0,6 0,1.4 0,2.8 0.1,4.2 0,0.3 0,0.5 0,0.7 -0.1,0.1 -0.2,0.1 -0.2,0.1 -0.3,0.2 -0.5,0.4 -0.5,0.9 0,0.3 0.2,0.5 0.6,0.5 0.6,0 1.2,0 1.8,-0.3 1.3,-0.2 2.5,-0.7 3.8,-0.7 0.2,0 0.5,-0.3 0.7,-0.4 0.2,-0.1 0.3,-0.4 0,-0.7 -0.1,0 -0.3,-0.1 -0.4,-0.1 -0.3,0 -0.5,0 -0.7,-0.1 0,-0.1 0,-0.4 0,-0.6 0,-0.9 0,-1.8 0.1,-2.7 0,-1.5 0,-3 0,-4.5 0,-2 -0.1,-3.9 0,-5.8 0,-2.1 0.2,-4.2 0.1,-6.2 0,-0.1 0,-1 0.2,-0.2 0.5,2.2 1.6,4.2 4.2,11.3 1.1,2.8 2.1,5.5 3.5,8.1 0.1,0.3 0.3,0.5 0.3,0.9 0,0 -0.1,0 -0.1,0.2 -0.4,0.5 -0.2,1 0.2,1.1 0.1,0.1 0.3,0.1 0.6,0.1 1.4,0 2.8,0 4.3,-0.2 0.3,0 0.7,-0.1 1,-0.1 0.2,-0.1 0.3,-0.3 0.3,-0.4 0.1,-0.1 0,-0.4 -0.1,-0.5 -0.2,-0.1 -0.5,-0.3 -0.7,-0.4 -0.1,-0.4 -0.1,-1 -0.2,-1.5 0,-2 0,-3.3 0.6,-22.1 0,-0.3 0,-0.5 0,-0.8 0.1,-0.6 0.2,-0.6 0.6,-0.6 0.3,0 0.7,0.1 0.9,0.1 0.3,0 0.5,0 0.6,-0.2 0.2,-0.2 0.3,-0.6 0,-0.9 z"
   id="path2108" />
	</g>
	<path
   class="st1"
   d="m 131.3,316.5 c 3.7,0.1 7.4,0.8 11,1.7 6.5,1.5 12.8,3.5 19.2,5.3 3.6,1.1 7.3,1.8 11,2.7 1.1,0.3 1.5,-0.3 1.6,-1.1 0.3,-1.8 1,-3.4 1.9,-5 1.8,-2.9 4.2,-5 7.8,-5.3 2.5,-0.2 4.6,0.7 5.8,2.9 1.2,2.2 0.7,4.4 -0.6,6.4 -2,3.1 -5,4.5 -8.6,5 -0.9,0.1 -1.8,0.1 -2.6,0.2 -0.5,0 -0.8,0.1 -0.9,0.7 -0.3,4.2 0.6,8.2 3.1,11.7 1.7,2.3 4,3.5 6.8,3.6 5.1,0.3 9.7,-1.1 13.8,-4.2 0.8,-0.7 0.8,-1.1 0.4,-2 -1.6,-2.8 -2.9,-5.7 -3.7,-8.8 -0.9,-3.1 -1.3,-6.2 -0.4,-9.5 0.8,-2.7 3.9,-5.6 6.7,-5.8 2.6,-0.2 5.2,1.6 6.1,4.6 0.9,2.7 1,5.5 0.6,8.4 -0.4,3.6 -1.7,6.8 -3.7,9.8 -0.1,0.2 -0.3,0.4 -0.5,0.6 -1.3,1.6 -1.3,1.7 -0.2,3.5 1.6,2.5 3.3,5 6.1,6.5 4.1,2 9.4,0.7 12.7,-2.3 2,-1.8 3.3,-4.1 4.5,-6.6 0.3,-0.7 -0.1,-1 -0.5,-1.3 -2.8,-2.3 -5.4,-4.9 -7.4,-8 -1.7,-2.7 -3.1,-5.5 -3.2,-8.8 -0.1,-1.5 0.2,-3.1 0.9,-4.4 2,-3.7 6.3,-3.5 9,-1 1.7,1.6 2.7,3.7 3.6,5.8 1.6,3.9 1.8,7.9 1.5,12 -0.1,0.9 -0.3,1.8 -0.5,2.7 -0.1,0.5 0,0.9 0.5,1.2 2.5,1.7 4.9,3.4 7.8,4.2 5.4,1.4 10.1,-1.1 11.6,-6.8 0.3,-1 0.4,-1.9 0.5,-2.9 0.2,-0.9 -0.2,-1.3 -1,-1.3 -2.5,-0.2 -5,-0.6 -7.2,-2 -2.7,-1.7 -4.8,-3.9 -5.7,-7.1 -1.2,-4.5 3.1,-7.9 7.1,-7.3 3.5,0.5 5.2,3 6.7,5.8 0.9,1.8 1.6,3.6 1.9,5.6 0.2,1 0.6,1.3 1.7,1.3 5.1,-0.3 9.8,-1.9 14.5,-3.6 6.2,-2.1 12,-5 18.3,-7 3.6,-1.1 7.2,-2.3 11,-2.5 4.9,-0.2 8.6,1.8 11.4,5.7 2,2.7 2.5,5.7 2.2,9 -0.3,2.8 -3,5.7 -6,6.4 -2.7,0.7 -5.8,-0.8 -7.5,-3.1 -2,-2.8 -0.7,-5.6 1.7,-6.9 0.8,-0.4 1.8,-0.2 2.3,0.6 0.5,0.8 0.2,1.3 -0.5,1.8 -0.8,0.6 -1.1,1.5 -0.8,2.4 0.4,1.3 1.2,2.3 2.6,2.6 2,0.4 4.2,-0.8 4.9,-2.8 1.5,-4 0.6,-7.6 -2,-10.8 -2.4,-2.9 -5.6,-3.7 -9.2,-3.2 -5.2,0.8 -9.9,2.9 -14.6,5 -4.9,2.2 -9.9,4.2 -14.9,6.2 -3.7,1.5 -7.6,2.8 -11.6,3.5 -0.3,0.1 -0.6,0.1 -0.9,0.2 -1.9,0.2 -2,0.2 -2.1,2.2 -0.3,3 -1.1,5.7 -3.3,7.8 -2.7,2.7 -6,3.6 -9.7,3.4 -3.6,-0.2 -6.8,-1.5 -9.9,-3.3 -0.9,-0.5 -1.3,-0.3 -1.7,0.6 -1.3,2.8 -3.3,5.1 -5.8,7 -5.4,4.1 -12.4,3.9 -17.6,-0.8 -1.5,-1.3 -2.9,-2.7 -4,-4.4 -0.6,-0.8 -1.1,-0.9 -1.8,-0.2 -3.5,2.8 -7.5,4.2 -11.9,4.4 -3,0.1 -6.1,0.1 -8.9,-1.6 -3.7,-2.3 -5.7,-5.7 -6.8,-9.8 -0.5,-1.8 -0.6,-3.6 -0.7,-5.4 0,-1 -0.4,-1.4 -1.3,-1.5 -4.1,-0.5 -8.1,-1.9 -12.1,-3 -3,-0.8 -6,-1.9 -9,-2.9 -4.1,-1.4 -8.2,-2.4 -12.3,-3.5 -3.1,-0.9 -6.3,-1.2 -9.5,-1.2 -2.5,0 -4.8,0.7 -6.6,2.6 -1.8,2.1 -2.3,4.5 -1.9,7.1 0.3,1.8 0.7,3.7 2.3,4.9 1.2,0.9 2.7,1 3.7,0.1 1.5,-1.2 1.9,-2.6 1.1,-4.1 -0.5,-0.9 0.2,-2.4 1.3,-2.6 0.6,-0.1 0.8,0.3 1.1,0.6 1.3,1.9 1.7,3.9 0.6,5.9 -1.2,2.1 -3.1,3.1 -5.5,3 -3.3,-0.1 -6.3,-2.9 -7,-6.3 -1.4,-7.1 3.5,-13.1 10.7,-13.2 0.9,0 1.7,0 2.5,0 z m 77.5,8.3 c 0,-1.4 -0.2,-2.8 -0.7,-4.2 -0.4,-1.1 -1,-2.3 -2.4,-2.5 -1.4,-0.2 -2.3,0.7 -3,1.7 -0.5,0.8 -0.9,1.6 -1,2.5 -0.5,4.9 0.2,9.7 2.1,14.3 0.3,0.7 0.6,0.6 0.9,0.1 2.5,-3.5 4,-7.5 4.1,-11.9 z m 22.3,7 c 0.1,-2.6 0,-5.3 -0.8,-7.8 -0.6,-1.9 -1.1,-3.9 -2.4,-5.5 -0.7,-0.9 -1.7,-1.5 -2.9,-1.2 -1.1,0.3 -1.7,1.1 -2,2.2 -0.3,1.1 -0.3,2.3 -0.1,3.4 1.1,4.7 3.9,8.3 7,11.8 0.2,0.2 0.4,0.5 0.7,0.3 0.3,-0.1 0.3,-0.4 0.3,-0.7 0.1,-0.9 0.2,-1.7 0.2,-2.5 z m 11.8,-13 c 0.1,0.4 0,0.8 0.2,1.1 1.5,3.6 5.1,6.3 9.1,6.8 0.6,0.1 0.8,-0.1 0.7,-0.8 -0.3,-1.6 -0.7,-3.1 -1.4,-4.6 -0.9,-1.9 -1.8,-4 -3.9,-4.9 -2,-0.7 -4.8,-0.5 -4.7,2.4 z m -63.7,8.2 c 3.5,0 5.9,-0.9 7.5,-3 1.7,-2.3 1.9,-4 -0.8,-5 -0.6,-0.2 -1.3,-0.1 -1.9,0 -3.4,0.6 -5.2,2.9 -6.2,6 -0.8,2.1 -0.4,2 1.4,2 z"
   id="path2112"
   style="fill:#4fb0c3;fill-opacity:1" />
</g>
</svg>
