<?xml version="1.0" encoding="UTF-8" standalone="no"?>
<!-- Generator: Adobe Illustrator 16.0.0, SVG Export Plug-In . SVG Version: 6.00 Build 0)  -->

<svg
   version="1.1"
   id="Calque_1"
   x="0px"
   y="0px"
   width="218.16638"
   height="272.38269"
   viewBox="0 0 218.16638 272.38269"
   enable-background="new 0 0 432 432"
   xml:space="preserve"
   sodipodi:docname="teach_your_heart_out.svg"
   inkscape:version="1.2 (dc2aedaf03, 2022-05-15)"
   xmlns:inkscape="http://www.inkscape.org/namespaces/inkscape"
   xmlns:sodipodi="http://sodipodi.sourceforge.net/DTD/sodipodi-0.dtd"
   xmlns="http://www.w3.org/2000/svg"
   xmlns:svg="http://www.w3.org/2000/svg"><defs
   id="defs54" /><sodipodi:namedview
   id="namedview52"
   pagecolor="#ffffff"
   bordercolor="#000000"
   borderopacity="0.25"
   inkscape:showpageshadow="2"
   inkscape:pageopacity="0.0"
   inkscape:pagecheckerboard="0"
   inkscape:deskcolor="#d1d1d1"
   showgrid="false"
   inkscape:zoom="1.9189815"
   inkscape:cx="8.858866"
   inkscape:cy="136.53076"
   inkscape:window-width="1920"
   inkscape:window-height="1009"
   inkscape:window-x="1912"
   inkscape:window-y="-8"
   inkscape:window-maximized="1"
   inkscape:current-layer="g49" />
<g
   id="g49"
   transform="translate(-106.92169,-79.810537)">
	<path
   d="m 265.242,132.288 c -0.979,2.055 -1.942,4.117 -2.939,6.163 -1.979,4.06 -3.867,8.163 -6.045,12.123 -1.544,2.808 -3.322,5.461 -5.291,7.986 -1.438,1.846 -3.146,3.396 -5.137,4.636 -2.188,1.362 -4.403,1.503 -6.703,0.273 -1.252,-0.67 -2.34,-1.524 -3.273,-2.588 -3.941,-4.494 -6.258,-9.695 -6.832,-15.661 -0.053,-0.552 -0.182,-1.098 -0.293,-1.747 -0.412,0.464 -0.492,0.98 -0.658,1.447 -1.879,5.313 -3.711,10.643 -5.779,15.884 -1.246,3.157 -2.537,6.307 -4.465,9.139 -0.477,0.7 -1.016,1.346 -1.659,1.884 -1.214,1.013 -2.481,0.949 -3.668,-0.097 -1.021,-0.9 -1.587,-2.097 -2.169,-3.276 -1.605,-3.256 -2.631,-6.708 -3.047,-10.298 -0.293,-2.53 -0.293,-5.09 -0.193,-7.652 0.148,-3.756 0.465,-7.496 0.802,-11.235 0.115,-1.273 0.298,-2.54 0.435,-3.812 0.043,-0.386 0.154,-0.78 -0.021,-1.235 -1.324,0.474 -2.417,1.271 -3.494,2.084 -2.53,1.907 -4.739,4.174 -7.056,6.32 -1.116,1.034 -2.253,2.047 -3.529,2.877 -3.144,2.047 -6.119,1.625 -8.494,-1.517 -1.772,-2.344 -2.658,-5.08 -3.284,-7.903 -0.283,-1.28 -0.438,-2.587 -0.67,-3.999 -0.394,0.231 -0.474,0.573 -0.611,0.866 -2.154,4.597 -4.34,9.179 -6.713,13.667 -1.895,3.583 -4.146,6.926 -6.955,9.871 -0.527,0.553 -1.107,1.037 -1.721,1.489 -2.074,1.532 -4.326,1.781 -6.695,0.854 -2.109,-0.825 -3.957,-2.039 -5.497,-3.744 -0.856,-0.948 -1.77,-1.835 -2.49,-2.904 -1.622,-2.405 -2.868,-4.965 -3.481,-7.822 -0.251,-1.162 -0.621,-2.299 -0.95,-3.492 -0.319,0.293 -0.38,0.612 -0.491,0.908 -1.971,5.279 -3.937,10.559 -5.917,15.834 -0.788,2.099 -1.695,4.142 -2.952,6.013 -0.537,0.8 -1.107,1.569 -1.855,2.187 -1.652,1.361 -3.608,1.353 -5.25,-0.032 -0.93,-0.784 -1.617,-1.76 -2.185,-2.83 -1.66,-3.127 -2.669,-6.495 -3.69,-9.859 -1.693,-5.571 -2.588,-11.291 -3.084,-17.071 -0.336,-3.9 -0.393,-7.816 -0.239,-11.733 0.067,-1.717 -0.033,-3.438 -0.002,-5.157 0.075,-4.194 0.183,-8.389 0.272,-12.584 0.006,-0.226 0.111,-0.473 -0.164,-0.737 -1.161,0.561 -2.201,1.364 -3.254,2.131 -2.883,2.099 -5.588,4.407 -7.988,7.055 -0.482,0.531 -0.9,1.121 -1.352,1.681 -0.306,0.378 -0.67,0.577 -1.148,0.317 -0.441,-0.239 -0.576,-0.688 -0.311,-1.239 0.738,-1.536 1.873,-2.781 3.039,-3.989 2.906,-3.01 6.22,-5.509 9.761,-7.718 1.597,-0.996 1.601,-0.99 1.667,-2.916 0.134,-3.838 0.488,-7.652 1.12,-11.442 0.167,-1.006 0.507,-1.933 0.978,-2.813 0.584,-1.098 1.459,-1.815 2.781,-1.725 1.316,0.091 2.065,0.928 2.545,2.07 0.639,1.521 0.596,3.124 0.567,4.725 -0.037,2.075 -0.083,4.151 -0.118,6.227 -0.004,0.235 -0.046,0.482 0.094,0.701 0.301,0.126 0.537,-0.064 0.787,-0.17 6.73,-2.848 13.741,-4.718 20.92,-6.01 7.48,-1.346 15.006,-2.359 22.593,-2.85 5.39,-0.349 10.788,-0.373 16.187,-0.155 5.035,0.202 10.061,0.527 15.073,1.042 3.657,0.377 7.3,0.859 10.941,1.377 6.058,0.859 12.078,1.913 18.063,3.162 5.592,1.166 11.164,2.424 16.737,3.673 4.954,1.11 9.931,2.088 14.967,2.736 1.663,0.214 3.344,0.293 5.015,0.447 0.408,0.038 0.65,-0.06 0.82,-0.482 0.742,-1.854 1.662,-3.627 2.531,-5.424 2.343,-4.839 5.598,-8.942 9.865,-12.183 2.922,-2.219 6.141,-3.922 9.912,-4.181 2.768,-0.189 5.438,0.193 7.811,1.757 3.678,2.421 4.94,6.903 3.135,11 -1.081,2.449 -2.857,4.318 -4.979,5.883 -2.805,2.065 -5.952,3.394 -9.298,4.305 -3.53,0.962 -7.135,1.383 -10.771,1.604 -1.084,0.066 -1.064,0.068 -1.42,1.068 -1.463,4.111 -2.447,8.342 -3.313,12.614 -1.051,5.188 -1.482,10.432 -1.693,15.705 -0.046,1.158 -0.129,2.314 -0.183,3.472 -0.015,0.307 -0.105,0.628 0.112,0.972 0.33,-0.148 0.391,-0.481 0.51,-0.75 1.881,-4.249 4.42,-8.051 7.729,-11.324 1.398,-1.383 2.928,-2.604 4.625,-3.602 1.216,-0.714 2.506,-1.211 3.914,-1.433 1.916,-0.301 3.572,0.197 4.969,1.509 1.596,1.5 2.506,3.36 2.879,5.526 0.629,3.658 0.545,7.32 0.188,10.99 -0.649,6.68 -1.31,13.356 -2.257,20.006 -0.619,4.345 -1.101,8.727 -0.791,13.141 0.086,1.237 0.225,2.472 0.785,3.604 0.482,0.976 0.871,1.082 1.797,0.502 0.929,-0.582 1.642,-1.396 2.308,-2.249 2.517,-3.226 4.571,-6.748 6.547,-10.315 2.983,-5.386 5.681,-10.92 8.452,-16.415 2.23,-4.424 4.365,-8.897 6.721,-13.258 0.493,-0.913 1.054,-1.791 1.606,-2.67 0.167,-0.266 0.391,-0.506 0.624,-0.717 0.223,-0.2 0.504,-0.232 0.781,-0.083 0.322,0.174 0.447,0.463 0.381,0.805 -0.044,0.229 -0.139,0.459 -0.258,0.66 -1.992,3.334 -3.569,6.882 -5.325,10.336 -4.003,7.873 -7.937,15.78 -11.97,23.639 -1.807,3.521 -3.813,6.938 -6.287,10.05 -0.524,0.658 -1.097,1.272 -1.741,1.814 -2.555,2.147 -5.147,1.604 -6.714,-1.336 -1.369,-2.568 -2.197,-5.313 -2.76,-8.142 -0.585,-2.94 -0.867,-5.916 -1.066,-8.913 -0.354,-5.305 0.195,-10.532 0.907,-15.766 0.274,-2.017 0.402,-4.054 0.589,-6.082 0.148,-1.631 0.328,-3.26 0.416,-4.894 0.121,-2.236 0.061,-4.475 -0.184,-6.702 -0.1,-0.913 -0.584,-1.295 -1.584,-1.239 -1.006,0.057 -1.956,0.353 -2.867,0.8 -2.086,1.025 -3.805,2.523 -5.291,4.262 -4.168,4.882 -6.787,10.521 -7.931,16.832 -0.372,2.05 -0.185,4.146 -0.313,6.218 -0.021,0.358 -0.027,0.722 -0.094,1.073 -0.129,0.69 -0.525,1.168 -1.238,1.298 -0.719,0.131 -1.25,-0.211 -1.613,-0.795 -0.402,-0.647 -0.66,-1.374 -0.86,-2.103 -1.083,-3.927 -2.247,-7.842 -2.805,-11.887 -0.321,-2.332 -0.554,-4.684 -0.544,-7.047 0.002,-0.424 -0.035,-0.848 -0.055,-1.271 -0.083,-0.008 -0.161,-0.014 -0.241,-0.019 z m -50.097,36.969 c 0.358,-0.469 0.739,-0.922 1.07,-1.408 1.535,-2.257 2.745,-4.692 3.824,-7.188 3.189,-7.384 5.646,-15.037 8.238,-22.64 0.129,-0.378 0.213,-0.764 0.209,-1.174 -0.039,-3.487 0.297,-6.942 0.951,-10.366 0.307,-1.608 0.791,-3.168 1.263,-4.733 0.971,-3.221 2.31,-6.213 4.882,-8.503 2.941,-2.619 6.326,-3.446 10.006,-2.015 4.23,1.647 7.335,4.616 9.184,8.813 0.561,1.272 0.744,2.605 0.463,3.983 -0.166,0.808 -0.534,1.224 -1.085,1.235 -0.554,0.011 -0.984,-0.402 -1.089,-1.207 -0.092,-0.7 -0.367,-1.313 -0.719,-1.89 -1.719,-2.819 -4.221,-4.641 -7.34,-5.644 -1.164,-0.374 -2.229,-0.118 -3.132,0.672 -0.536,0.47 -1.042,0.976 -1.446,1.588 -1.636,2.479 -2.484,5.255 -3.098,8.116 -0.57,2.661 -0.913,5.355 -0.957,8.082 -0.037,2.356 -0.01,4.714 0.213,7.06 0.199,2.106 0.508,4.202 0.779,6.302 0.293,2.259 0.577,4.521 1.186,6.725 0.426,1.541 0.855,3.079 1.807,4.412 1.281,1.796 2.404,2.057 4.287,0.946 0.137,-0.081 0.266,-0.176 0.4,-0.264 1.386,-0.904 2.564,-2.044 3.624,-3.3 2.975,-3.525 5.494,-7.37 7.704,-11.406 3.438,-6.279 6.347,-12.82 9.353,-19.313 0.116,-0.252 0.215,-0.523 0.255,-0.795 0.37,-2.448 0.777,-4.89 1.166,-7.334 0.561,-3.521 1.391,-6.963 2.429,-10.365 0.32,-1.052 0.612,-2.111 0.912,-3.146 -0.424,-0.24 -0.79,-0.245 -1.143,-0.269 -5.2,-0.354 -10.311,-1.284 -15.387,-2.414 -7.368,-1.64 -14.724,-3.339 -22.097,-4.956 -5.506,-1.207 -11.064,-2.142 -16.641,-2.95 -4.47,-0.647 -8.957,-1.175 -13.458,-1.573 -4.662,-0.412 -9.33,-0.716 -14.007,-0.837 -8.408,-0.218 -16.783,0.231 -25.123,1.364 -6.539,0.889 -13.041,1.961 -19.432,3.627 -4.453,1.16 -8.777,2.698 -13.01,4.51 -0.758,0.325 -0.982,0.723 -0.982,1.521 0,2.556 -0.105,5.11 -0.152,7.666 -0.099,5.353 -0.211,10.705 -0.268,16.059 -0.051,4.759 0.164,9.509 0.168,14.265 0.002,3.193 0.283,6.385 0.457,9.576 0.172,3.163 0.565,6.286 1.184,9.386 0.259,1.299 0.633,2.567 1.307,3.717 0.7,1.197 1.375,1.278 2.383,0.323 0.261,-0.246 0.487,-0.528 0.711,-0.809 0.68,-0.849 1.17,-1.813 1.648,-2.779 1.703,-3.444 3.055,-7.037 4.449,-10.611 1.524,-3.908 3.009,-7.833 4.514,-11.749 0.232,-0.603 0.301,-1.181 0.208,-1.855 -0.767,-5.539 -0.825,-11.064 0.536,-16.541 0.824,-3.314 1.951,-6.5 3.898,-9.343 1.636,-2.39 3.602,-4.353 6.477,-5.242 2.615,-0.811 5.008,-0.464 7.09,1.301 2.746,2.329 4.422,5.352 5.172,8.847 0.955,4.453 -0.248,8.317 -3.51,11.495 -1.63,1.589 -3.641,2.589 -5.762,3.356 -1.809,0.654 -3.672,1.085 -5.59,1.298 -0.919,0.103 -0.919,0.159 -0.822,1.063 0.051,0.477 0.108,0.953 0.154,1.431 0.277,2.87 0.754,5.716 1.531,8.481 0.918,3.263 2,6.482 3.113,9.685 0.471,1.352 1.154,2.643 2.064,3.772 1.065,1.324 2.317,1.571 3.836,0.816 1.203,-0.599 2.154,-1.508 3.033,-2.5 2.587,-2.924 4.633,-6.221 6.487,-9.629 2.579,-4.741 4.853,-9.638 7.101,-14.544 0.447,-0.975 1.025,-1.913 1.195,-2.995 0.219,-1.382 0.371,-2.773 0.588,-4.154 0.811,-5.153 2.348,-10.001 5.575,-14.234 2.042,-2.678 4.481,-4.589 7.806,-5.373 1.865,-0.439 3.646,-0.366 5.402,0.332 3.125,1.243 5.313,3.499 6.73,6.497 0.976,2.06 1.206,4.216 0.414,6.41 -0.254,0.705 -0.619,1.005 -1.09,0.892 -0.566,-0.136 -0.696,-0.573 -0.732,-1.094 -0.159,-2.264 -1.311,-3.976 -3.016,-5.378 -1.77,-1.455 -3.701,-1.863 -5.797,-0.816 -1.604,0.802 -2.892,2.016 -3.863,3.507 -2.277,3.494 -3.318,7.454 -3.877,11.502 -0.604,4.389 -1.051,8.808 -1.233,13.243 -0.064,1.575 0.083,3.124 0.67,4.592 0.596,1.488 1.626,1.871 3.077,1.209 0.916,-0.419 1.72,-1.014 2.459,-1.696 3.26,-3.012 6.514,-6.029 9.784,-9.03 1.265,-1.161 2.446,-2.418 3.868,-3.399 2.035,-1.406 4.279,-1.125 5.893,0.742 0.873,1.012 1.257,2.209 1.318,3.524 0.116,2.521 -0.006,5.032 -0.227,7.545 -0.357,4.059 -0.721,8.119 -0.68,12.199 0.04,4.036 0.061,8.07 -0.144,12.104 -0.055,1.185 -0.009,2.381 0.404,3.67 z m 64.671,-67.103 c 0.207,0.028 0.325,0.065 0.44,0.057 3.066,-0.224 6.13,-0.498 9.127,-1.215 3.603,-0.863 7.007,-2.191 9.947,-4.52 1.716,-1.357 3.149,-2.941 3.894,-5.053 1.341,-3.812 -0.834,-7.592 -4.801,-8.35 -1.952,-0.372 -3.812,-0.036 -5.605,0.752 -2.795,1.23 -4.825,3.36 -6.612,5.743 -2.41,3.214 -4.042,6.866 -5.734,10.476 -0.295,0.631 -0.658,1.283 -0.656,2.11 z m -112.83,14.032 c 0.051,-1.957 -1.574,-5.198 -4.12,-7.07 -1.182,-0.868 -2.003,-0.838 -3.11,0.137 -0.695,0.612 -1.215,1.384 -1.734,2.132 -1.606,2.312 -2.757,4.855 -3.564,7.548 -0.736,2.459 -1.107,4.988 -1.301,7.543 -0.075,1.004 0.017,1.104 0.935,1.01 2.675,-0.275 5.315,-0.752 7.716,-2.03 3.255,-1.735 5.071,-4.424 5.178,-9.27 z"
   id="path29" />
	<path
   fill="#CB7B26"
   d="m 213.94,252.09 c 0.354,-0.261 0.458,-0.701 0.641,-1.08 1.722,-3.576 4.005,-6.714 7.1,-9.237 1.992,-1.625 4.235,-2.728 6.752,-3.201 5.274,-0.991 10.086,1.719 12.136,6.753 1.121,2.751 1.229,5.597 0.813,8.484 -0.542,3.761 -1.964,7.237 -3.579,10.637 -2.889,6.078 -6.543,11.717 -10.116,17.397 -3.022,4.803 -6.079,9.583 -8.888,14.517 -0.119,0.208 -0.23,0.422 -0.361,0.622 -1.066,1.63 -2.327,1.903 -3.955,0.807 -0.999,-0.673 -1.852,-1.532 -2.647,-2.426 -4.386,-4.921 -8.706,-9.902 -12.509,-15.296 -2.65,-3.761 -4.883,-7.755 -6.554,-12.073 -1.12,-2.893 -1.966,-5.819 -2.269,-8.9 -0.298,-3.023 0.012,-6.006 1.057,-8.844 0.946,-2.571 2.357,-4.885 4.705,-6.487 3.072,-2.095 6.262,-2.214 9.512,-0.519 3.186,1.66 5.423,4.289 7.201,7.347 0.28,0.48 0.541,0.973 0.814,1.457 0.014,0.022 0.072,0.021 0.147,0.042 z m 2.974,43.028 c 0.352,-0.518 0.583,-0.835 0.789,-1.167 1.281,-2.073 2.534,-4.164 3.836,-6.224 3.758,-5.944 7.61,-11.829 10.965,-18.018 2.385,-4.399 4.506,-8.911 5.743,-13.79 0.636,-2.507 0.917,-5.029 0.386,-7.594 -1.359,-6.556 -7.34,-8.519 -12.148,-5.959 -2.752,1.465 -4.852,3.622 -6.586,6.159 -1.514,2.214 -2.756,4.585 -3.93,6.994 -0.402,0.824 -0.826,1.649 -1.349,2.398 -0.608,0.873 -1.573,0.795 -2.153,-0.104 -0.216,-0.334 -0.396,-0.686 -0.477,-1.091 -0.431,-2.184 -1.339,-4.186 -2.5,-6.059 -1.126,-1.815 -2.549,-3.381 -4.391,-4.518 -1.793,-1.106 -3.734,-0.973 -5.174,0.443 -1.352,1.329 -2.146,2.961 -2.339,4.862 -0.171,1.677 0.014,3.336 0.173,5.009 0.449,4.706 2.221,8.965 4.338,13.101 1.751,3.417 4.055,6.5 6.09,9.745 2.037,3.248 4.01,6.532 5.791,9.931 0.983,1.875 1.973,3.743 2.936,5.882 z"
   id="path31"
   style="fill:#4fb0c3;fill-opacity:1" />
	<g
   id="g39">
		<path
   d="m 233.104,207.106 c -0.484,1.844 -0.927,3.701 -1.462,5.529 -1.126,3.841 -2.455,7.604 -4.512,11.067 -0.408,0.689 -0.877,1.336 -1.436,1.913 -1.818,1.874 -4.182,2.067 -6.266,0.497 -1.671,-1.259 -2.791,-2.956 -3.683,-4.805 -1.708,-3.543 -2.847,-7.26 -3.665,-11.118 -1.154,-5.438 -1.435,-10.911 -1.346,-16.436 0.045,-2.757 0.056,-5.514 0.258,-8.265 0.071,-0.962 0.226,-1.903 0.529,-2.82 0.207,-0.622 0.559,-1.152 1.009,-1.613 1.033,-1.054 2.558,-1.121 3.679,-0.154 1.054,0.909 1.484,2.141 1.75,3.459 0.523,2.606 0.506,5.252 0.496,7.885 -0.014,3.479 0.169,6.945 0.389,10.413 0.334,5.265 0.826,10.515 1.486,15.748 0.174,1.387 0.434,2.775 0.99,4.063 1.082,2.507 1.764,2.351 3.422,0.544 0.57,-0.619 0.97,-1.365 1.34,-2.123 2.042,-4.189 3.395,-8.616 4.564,-13.109 0.716,-2.746 1.247,-5.535 1.946,-8.283 0.562,-2.208 0.51,-4.436 0.492,-6.671 -0.017,-2.118 -0.077,-4.235 0.169,-6.347 0.102,-0.877 0.27,-1.742 0.563,-2.572 0.603,-1.705 2.103,-2.615 3.625,-2.193 1.181,0.326 1.854,1.208 2.271,2.297 0.417,1.089 0.623,2.234 0.758,3.386 0.295,2.505 0.221,5.027 0.33,7.542 0.168,3.912 0.068,7.831 0.354,11.74 0.344,4.696 0.73,9.391 0.643,14.108 -0.023,1.319 0.175,2.636 0.723,3.864 0.367,0.824 0.643,0.886 1.317,0.276 0.963,-0.87 1.633,-1.964 2.244,-3.092 1.356,-2.504 2.362,-5.156 3.314,-7.831 2.147,-6.041 3.737,-12.222 4.653,-18.57 0.264,-1.822 0.445,-3.651 0.543,-5.488 0.053,-1.014 0.047,-1.058 -0.975,-1.236 -2.179,-0.381 -3.965,-1.421 -5.422,-3.063 -1.516,-1.706 -2.354,-3.688 -2.451,-5.974 -0.063,-1.489 0.063,-2.953 0.603,-4.361 0.349,-0.912 0.854,-1.704 1.628,-2.328 0.975,-0.785 2.029,-0.875 3.148,-0.423 0.836,0.338 1.472,0.942 2.012,1.655 1.488,1.962 2.164,4.262 2.699,6.606 0.382,1.676 0.599,3.383 0.699,5.102 0.05,0.87 0.119,0.943 0.996,0.919 0.959,-0.028 1.916,-0.086 2.875,-0.132 4.561,-0.222 7.023,2.916 7.928,6.546 0.931,3.736 0.818,7.524 0.735,11.315 -0.054,2.436 -0.098,4.873 -0.245,7.304 -0.144,2.352 -0.394,4.696 -0.635,7.041 -0.169,1.632 -0.283,3.263 -0.174,4.901 0.03,0.456 -0.035,0.963 0.386,1.366 0.713,-0.317 1.066,-0.957 1.45,-1.549 1.264,-1.95 2.281,-4.036 3.246,-6.143 3.16,-6.903 6.291,-13.82 9.434,-20.732 0.299,-0.656 0.615,-1.302 1.055,-1.878 0.31,-0.407 0.685,-0.748 1.211,-0.429 0.538,0.325 0.355,0.785 0.146,1.26 -2.502,5.664 -4.984,11.338 -7.486,17.003 -1.693,3.837 -3.229,7.746 -5.174,11.469 -0.427,0.817 -0.912,1.596 -1.472,2.328 -0.442,0.581 -0.974,1.057 -1.626,1.391 -1.287,0.657 -2.465,0.519 -3.553,-0.431 -0.957,-0.835 -1.574,-1.927 -2.08,-3.051 -1.324,-2.934 -2.117,-6.021 -2.387,-9.233 -0.283,-3.353 -0.059,-6.703 0.086,-10.054 0.145,-3.314 0.205,-6.633 -0.135,-9.937 -0.146,-1.426 -0.534,-2.826 -0.984,-4.194 -0.316,-0.963 -1.174,-1.247 -2.023,-1.509 -1.438,-0.443 -1.451,-0.419 -1.539,1.022 -0.328,5.449 -1.351,10.78 -2.797,16.032 -1.381,5.014 -3.026,9.938 -5.232,14.66 -0.695,1.488 -1.518,2.904 -2.486,4.232 -0.477,0.651 -1.01,1.245 -1.676,1.702 -1.141,0.784 -2.335,0.781 -3.461,-0.005 -0.325,-0.228 -0.654,-0.47 -0.919,-0.763 -2.72,-3.009 -4.726,-6.357 -5.636,-10.401 -0.628,-2.792 -0.697,-5.617 -1.088,-8.418 -0.02,-0.145 -0.027,-0.29 -0.041,-0.436 -0.04,-0.003 -0.084,-0.009 -0.127,-0.015 z m 15.311,-28.383 c 0.075,1.37 0.208,2.6 0.681,3.761 0.908,2.234 2.508,3.646 4.913,4.097 0.417,0.078 0.614,-0.029 0.575,-0.474 -0.265,-2.993 -0.744,-5.94 -1.963,-8.714 -0.369,-0.839 -0.817,-1.651 -1.548,-2.252 -0.826,-0.68 -1.399,-0.576 -1.935,0.352 -0.599,1.041 -0.647,2.202 -0.723,3.23 z"
   id="path33" />
		<path
   d="m 169.882,186.271 c -0.343,0.746 -0.683,1.493 -1.028,2.237 -1.752,3.772 -3.506,7.545 -6.092,10.849 -1.406,1.798 -2.878,3.536 -4.85,4.764 -1.95,1.215 -3.693,0.896 -5.189,-0.878 -1.602,-1.9 -2.565,-4.138 -3.422,-6.419 -1.891,-5.04 -2.744,-10.253 -2.359,-15.639 0.084,-1.192 0.292,-2.378 0.471,-3.563 0.09,-0.596 0.31,-1.161 0.601,-1.688 0.961,-1.737 2.94,-1.879 4.128,-0.295 0.562,0.749 0.871,1.609 1.057,2.522 0.455,2.235 0.703,4.498 0.842,6.771 0.205,3.388 0.354,6.779 0.532,10.169 0.101,1.922 0.386,3.814 0.909,5.669 0.064,0.229 0.123,0.465 0.225,0.679 0.326,0.694 0.512,0.772 1.209,0.42 0.937,-0.473 1.729,-1.149 2.483,-1.869 2.224,-2.122 3.899,-4.654 5.352,-7.333 2.003,-3.694 3.751,-7.508 5.087,-11.499 0.24,-0.719 0.439,-1.453 0.609,-2.191 0.256,-1.118 0.701,-2.086 1.953,-2.312 1.275,-0.229 2.285,0.364 3.027,1.326 0.708,0.919 1.241,1.96 1.496,3.112 0.586,2.657 0.927,5.349 1.113,8.062 0.209,3.068 0.426,6.136 0.631,9.204 0.309,4.637 0.361,9.248 -0.813,13.81 -1.37,5.318 -4.209,9.526 -8.966,12.364 -1.753,1.046 -3.639,1.598 -5.694,1.619 -3.373,0.035 -5.821,-1.444 -7.385,-4.408 -0.861,-1.634 -1.352,-3.417 -2,-5.136 -0.191,-0.511 -0.129,-0.984 0.414,-1.212 0.583,-0.245 0.878,0.16 1.101,0.625 0.622,1.297 1.229,2.603 1.873,3.889 0.469,0.935 1.055,1.791 1.892,2.447 1.84,1.44 4.72,1.549 6.896,0.256 3.772,-2.241 5.512,-5.627 5.623,-9.947 0.078,-3.045 -0.409,-6.056 -0.516,-9.089 -0.098,-2.753 -0.222,-5.506 -0.378,-8.256 -0.113,-1.993 -0.308,-3.981 -0.448,-5.974 -0.07,-0.995 -0.1,-1.994 -0.146,-2.991 -0.081,-0.031 -0.159,-0.063 -0.238,-0.095 z"
   id="path35" />
		<path
   d="m 207.643,201.183 c 0.068,4.092 -0.602,8.389 -1.721,12.61 -0.969,3.651 -2.352,7.132 -4.906,10.02 -0.582,0.658 -1.199,1.278 -1.917,1.8 -2.75,1.998 -5.759,1.993 -8.589,0.07 -2.492,-1.695 -4.288,-3.993 -5.713,-6.651 -1.672,-3.118 -2.541,-6.477 -2.968,-9.915 -0.558,-4.491 -0.435,-8.978 0.694,-13.436 0.699,-2.765 1.5,-5.473 2.754,-8.015 1.604,-3.246 3.744,-6.057 7.194,-7.563 1.893,-0.827 3.851,-1 5.835,-0.311 0.678,0.235 1.344,0.504 2.011,0.771 2.648,1.063 4.093,3.229 5.124,5.722 0.92,2.227 1.398,4.574 1.717,6.959 0.338,2.537 0.591,5.078 0.485,7.939 z m -18.332,2.958 c -0.16,0.729 -0.037,1.484 0.021,2.241 0.181,2.388 0.377,4.769 0.769,7.138 0.34,2.054 0.701,4.092 1.469,6.029 0.519,1.31 1.223,2.51 2.371,3.397 0.918,0.708 1.883,0.802 2.92,0.323 1,-0.461 1.809,-1.157 2.498,-2.01 1.168,-1.449 1.957,-3.1 2.594,-4.833 0.982,-2.676 1.552,-5.448 1.938,-8.266 0.691,-5.051 0.969,-10.106 0.117,-15.164 -0.385,-2.284 -0.789,-4.571 -1.881,-6.661 -0.313,-0.6 -0.544,-1.244 -1.398,-1.264 -0.285,-0.006 -0.437,-0.322 -0.635,-0.516 -0.836,-0.815 -1.834,-1.091 -2.975,-0.877 -1.269,0.238 -2.293,0.868 -3.123,1.859 -2.879,3.438 -3.697,7.633 -4.317,11.876 -0.325,2.213 -0.45,4.455 -0.368,6.728 z"
   id="path37" />
	</g>
	<g
   id="g47">
		<path
   d="m 201.156,327.723 c -0.164,5.858 -1.202,11.514 -3.937,16.768 -1.325,2.547 -2.963,4.841 -5.455,6.392 -1.351,0.84 -2.823,1.277 -4.425,1.309 -1.996,0.038 -3.635,-0.808 -5.13,-2.012 -3.157,-2.544 -5.342,-5.81 -6.844,-9.527 -2.72,-6.731 -3.409,-13.686 -1.936,-20.807 0.759,-3.665 2.067,-7.125 4.261,-10.207 1.708,-2.399 3.879,-4.227 6.576,-5.415 1.211,-0.533 2.521,-0.857 3.799,-0.995 2.889,-0.31 6.821,1.251 8.361,4.48 2.01,4.218 3.438,8.596 4.133,13.215 0.34,2.253 0.648,4.509 0.597,6.799 z m -21.091,-1.337 c -0.021,0.41 -0.042,0.57 -0.036,0.729 0.195,5.179 1.049,10.245 2.764,15.138 0.631,1.8 1.435,3.557 2.759,5.001 1.272,1.389 2.841,1.736 4.558,0.989 0.703,-0.306 1.33,-0.731 1.877,-1.269 0.918,-0.902 1.668,-1.933 2.311,-3.045 1.248,-2.159 2.113,-4.471 2.755,-6.873 2.519,-9.446 1.431,-18.521 -2.812,-27.269 -0.365,-0.753 -0.775,-1.497 -1.389,-2.087 -0.766,-0.737 -1.608,-1.191 -2.765,-1.132 -1.542,0.079 -2.771,0.717 -3.845,1.723 -2.34,2.192 -3.66,5.009 -4.684,7.972 -1.159,3.354 -1.63,6.825 -1.493,10.123 z"
   id="path41" />
		<path
   d="m 227.892,318.417 c -0.097,7.318 -0.604,14.281 -2.323,21.111 -0.664,2.64 -1.438,5.238 -2.736,7.65 -0.477,0.884 -1.027,1.715 -1.787,2.387 -1.791,1.585 -4.072,1.751 -6.09,0.481 -2.438,-1.536 -4.189,-3.693 -5.527,-6.188 -2.2,-4.1 -3.327,-8.517 -3.914,-13.122 -0.521,-4.094 -0.731,-8.201 -0.746,-12.311 -0.009,-2.821 -0.141,-5.675 0.536,-8.468 0.2,-0.825 0.489,-1.608 0.858,-2.358 0.543,-1.103 1.352,-1.901 2.692,-1.845 1.359,0.058 2.045,0.962 2.472,2.115 0.76,2.053 0.9,4.207 0.988,6.364 0.209,5.148 0.37,10.304 0.94,15.425 0.478,4.283 0.958,8.575 1.989,12.778 0.326,1.331 0.796,2.6 1.456,3.792 0.983,1.776 2.024,1.865 3.286,0.296 0.912,-1.137 1.492,-2.464 1.982,-3.813 1.829,-5.025 2.734,-10.247 3.327,-15.546 0.571,-5.104 0.509,-10.213 0.358,-15.329 -0.035,-1.157 -0.044,-2.314 -0.061,-3.472 -0.004,-0.28 -0.013,-0.562 0.01,-0.84 0.062,-0.771 0.406,-1.204 0.92,-1.181 0.476,0.021 0.81,0.401 0.865,1.121 0.104,1.314 0.175,2.631 0.232,3.948 0.106,2.438 0.192,4.874 0.273,7.005 z"
   id="path43" />
		<path
   d="m 236.098,323.622 c -0.986,-0.119 -1.723,0.15 -2.48,0.168 -0.559,0.013 -1.121,0.051 -1.678,0.01 -0.764,-0.056 -1.191,-0.469 -1.207,-1.074 -0.014,-0.572 0.311,-0.974 1.029,-1.122 0.86,-0.177 1.734,-0.291 2.604,-0.421 0.315,-0.047 0.638,-0.086 0.955,-0.079 0.596,0.012 0.734,-0.304 0.725,-0.833 -0.039,-2.116 -0.088,-4.233 -0.07,-6.35 0.016,-1.716 0.064,-3.437 0.516,-5.115 0.192,-0.712 0.533,-1.341 0.98,-1.906 1.328,-1.676 3.086,-1.672 4.434,0.005 0.827,1.028 1.2,2.239 1.361,3.531 0.383,3.059 0.461,6.134 0.523,9.21 0.021,0.992 0.001,1.026 0.979,0.976 1.758,-0.09 3.511,-0.229 5.266,-0.339 0.479,-0.03 0.959,-0.066 1.436,-0.04 0.346,0.019 0.59,0.249 0.651,0.604 0.062,0.358 -0.115,0.606 -0.411,0.796 -0.318,0.202 -0.678,0.23 -1.034,0.272 -1.944,0.231 -3.89,0.463 -5.835,0.687 -0.91,0.104 -0.97,0.139 -0.956,0.992 0.05,3.037 0.14,6.073 0.164,9.11 0.024,3.196 -0.005,6.393 -0.017,9.589 -0.006,1.759 0.041,3.519 0.264,5.262 0.287,2.256 1.32,2.685 3.135,1.357 1.344,-0.982 2.373,-2.256 3.261,-3.645 2.436,-3.813 4.538,-7.81 6.544,-11.858 0.231,-0.467 0.397,-0.956 0.523,-1.465 0.164,-0.664 0.516,-0.965 0.938,-0.842 0.573,0.168 0.661,0.624 0.627,1.146 -0.056,0.817 -0.393,1.546 -0.717,2.274 -1.239,2.776 -2.709,5.437 -4.094,8.14 -1.114,2.175 -2.318,4.289 -3.877,6.187 -1.113,1.354 -2.404,2.449 -4.1,3.007 -1.809,0.595 -3.371,0.24 -4.713,-1.139 -1.831,-1.88 -2.903,-4.152 -3.721,-6.618 -1.144,-3.448 -1.496,-7.021 -1.867,-10.591 -0.174,-1.664 -0.113,-3.353 -0.133,-5.03 -0.02,-1.593 -0.005,-3.186 -0.005,-4.856 z"
   id="path45" />
	</g>
</g>
</svg>
